<svg xmlns="http://www.w3.org/2000/svg" viewBox="0 0 138.52 32.54"><defs><style>.cls-1{fill:#de772c;}</style></defs><title>bar-orange</title><g id="Layer_2" data-name="Layer 2"><g id="Layer_1-2" data-name="Layer 1"><path class="cls-1" d="M136.76,23.64a9.24,9.24,0,0,0,.51-10.08,28.41,28.41,0,0,1-1.47-4.85,1.62,1.62,0,0,0-.5-.67c-.78-.71-1.88-1.25-2.31-2.12A7,7,0,0,0,128.9,2.3a2.16,2.16,0,0,1-1-.62c-.89-1.07-8.31-.15-9.25-1.17l-23,0c-2.78.13-5.29.32-7.8.33C79.57.88,71.29.87,63,.92a26.69,26.69,0,0,0-5.37.34C56,1.62,54.41,2,52.83,1a1.94,1.94,0,0,0-1-.19c-3.07,0-6.15,0-9.22.11-5.06.13-10.13.87-15.1-.78a4.89,4.89,0,0,0-2-.12,68.09,68.09,0,0,0-7,.85C12.54,2.09,7.28,4.54,3.27,9.19A11.85,11.85,0,0,0,.21,19.5c.06.34.11.86.33,1a4.35,4.35,0,0,1,1.89,2.67,1.46,1.46,0,0,0,.66.61c1.36.77,2.73,1.49,4.09,2.26a10.91,10.91,0,0,0,5.65,1.77,4.25,4.25,0,0,1,3.09,1.29,5.58,5.58,0,0,0,1.35,1c.52.24,1.31.61,1.65.4C20,29.8,21,30.2,22,30.42c2.48.53,4.95,1.15,7.43,1.73a6.53,6.53,0,0,0,1.81.39c4.49-.3,9-.66,13.55-1l.16,1c.58-.3,1-.53,1.47-.78s.62-.56,1-.62c2.92-.48,5.84-1,8.77-1.34,4.47-.57,9-1,13.54-1.57,0,.64-.07.92-.1,1.39,1.42-.77,3,.45,4.27-.84,0,0,.14,0,.21.08a6,6,0,0,0,5.08-.44l.57.92c3.3-1,7.75-.57,10,.93l19.84.32c.7.07,14-.35,14.62-.79.23-.18,9.26.15,9.33-.09.42-1.43,1-1.85,2.67-1.41-.26-.37-.33-.6-.47-.65-1-.33-.88-.93-.42-1.64S136.25,24.4,136.76,23.64ZM6.59,14.21a1.59,1.59,0,0,1-1-1.91A3.85,3.85,0,0,1,8.83,9.64Zm4.66.3c.24-.84.47-1.65.69-2.4L15.46,10C14.09,12.61,12.85,14,11.25,14.51Zm3.23,4.37c.69.21.69.21,1.46,2.12C14.21,20.47,14.21,20.47,14.48,18.88ZM15.5,6c-1.14,0-2.27.17-3.54.27C14,4.44,16.44,4.79,19.1,4.75A4.5,4.5,0,0,1,15.5,6Zm10.41,7.39c-1.22,1.23-2.38,1.2-4-.08C23.43,11.68,24.59,13.69,25.91,13.35Zm5,4.4a1.18,1.18,0,0,1-.83.45c-2.58-.23-5.15-.54-7.73-.75-1.3-.11-1.79-.89-2-2.17,3.15-.15,6.23-.42,9.31-.41C31.48,14.88,32,16.18,30.91,17.75ZM33.4,14.9c2.92.69,6.34-.94,8.58,2.1l-.09.62-8.49.61Zm7.31,14.6c3-1.8,6.06-.69,9.18-1.14C48.13,29.55,43,30.18,40.71,29.5ZM63,19.8h3.09C65,20.8,64,20,63,19.8Zm9.66-.47H84.8C81.44,20.89,75.38,20.75,72.69,19.33ZM56.18,13c14.33-.57,28.65-1.51,43,.21A277.66,277.66,0,0,1,56.18,13Zm68.16-2.85-2.6-.34C122.56,8.71,123.4,8.77,124.34,10.15Zm3.83,15-5-.89c1.81-.55,3.55-.69,5.11.41Zm-7-8.14c1.73,0,3.46-.13,5.19,0,2.47.12,5,.29,7.4.6Z"/></g></g></svg>