<svg xmlns="http://www.w3.org/2000/svg" viewBox="0 0 138.52 110.35"><defs><style>.cls-1{fill:#563e71;}</style></defs><title>arrow-purple</title><g id="Layer_2" data-name="Layer 2"><g id="Layer_1-2" data-name="Layer 1"><path class="cls-1" d="M136.22,69.87c-1.62-.44-2.25,0-2.67,1.41-.07.24-.39.41-.62.58a10.43,10.43,0,0,0-1.74,1.31c-4.08,4.71-8.12,9.46-12.16,14.2-1.27,1.49-2.5,3-3.74,4.54-.15.18-.25.47-.44.56a16.43,16.43,0,0,0-3.06,2.19c-3.92,3.14-8.13,5.92-12.24,8.83-.1.07-.26.11-.29.2-.45,1.58-1.9,1.38-3,1.8-.77.28-1.39,1-2.16,1.22-3.31,1-6.61,2.15-10,2.89a42.84,42.84,0,0,1-7.6.75c-2.39.08-4-1.43-5.3-3.25a4.8,4.8,0,0,1-.34-2.55c0-5.06,1.58-9.43,5.9-12.48a2,2,0,0,0,.64-.83c2.3-5.83,5.88-10.87,9.67-15.79.91-1.19,1.81-2.4,2.72-3.61-2.28-1.5-6.73-1.93-10-.93L79.16,70a6,6,0,0,1-5.08.44c-.07,0-.19-.1-.21-.08-1.23,1.29-2.85.07-4.27.84l.1-1.39c-4.59.53-9.07,1-13.54,1.57-2.93.37-5.85.86-8.77,1.34-.34.06-.63.42-1,.62s-.89.48-1.47.78l-.16-1c-4.56.35-9.06.71-13.55,1a6.53,6.53,0,0,1-1.81-.39c-2.48-.58-5-1.2-7.43-1.73-1-.22-2-.62-3.09,0-.34.21-1.13-.16-1.65-.4a5.58,5.58,0,0,1-1.35-1,4.25,4.25,0,0,0-3.09-1.29,10.91,10.91,0,0,1-5.65-1.77c-1.36-.77-2.73-1.49-4.09-2.26a1.46,1.46,0,0,1-.66-.61A4.35,4.35,0,0,0,.54,62.07c-.22-.12-.27-.64-.33-1A11.85,11.85,0,0,1,3.27,50.78c4-4.65,9.27-7.1,15.16-8.29a68.09,68.09,0,0,1,7-.85,4.89,4.89,0,0,1,2,.12c5,1.65,10,.91,15.1.78,3.07-.08,6.15-.09,9.22-.11a1.94,1.94,0,0,1,1,.19c1.58,1,3.14.59,4.82.23A26.69,26.69,0,0,1,63,42.51c8.27,0,16.55,0,24.82-.11,2.51,0,5-.21,7.8-.33L93.5,39.72A93.49,93.49,0,0,1,76.09,12.63c-.65-1.55-.62-2.12.77-3.17,1.15-.86,1.42-1.63.74-3a11.4,11.4,0,0,1-.66-3c1.59-.37,1.61-.35,3.08,2.7a20.9,20.9,0,0,0,3.25-2.57A2.32,2.32,0,0,1,86,2.84c.22.06.46.07.94.14-.22-.5-.37-.87-.55-1.23-.33-.63-.18-1,.49-1.31,3.38-1.4,8.53.67,10,4.1-1.39.36-2.46-.4-3.59-.93a19.86,19.86,0,0,0-3.41-1.26C91.65,5.47,94.7,6,98.09,6.58l-.9-1.78a5.64,5.64,0,0,1,5.44.57,51,51,0,0,1,5.28,4.81,1.45,1.45,0,0,1,0,1.37,2.3,2.3,0,0,0,.18,3.06c1.33,1.59,2.8,3.06,4.16,4.62,1,1.11,1.83,2.3,2.74,3.44.17.21.35.5.56.54,1.55.28,2.3,1.44,3.11,2.6.68,1,1.56,1.78,2.31,2.69a3,3,0,0,1,.67,1.09,40,40,0,0,1,.93,4.45,10.62,10.62,0,0,0,2.82,6c.94,1,1.71,2.21,2.6,3.28a2.16,2.16,0,0,0,1,.62A7,7,0,0,1,133,47.51c.43.87,1.53,1.41,2.31,2.12a1.62,1.62,0,0,1,.5.67,28.41,28.41,0,0,0,1.47,4.85,9.24,9.24,0,0,1-.51,10.08c-.51.76-.94,1.57-1.43,2.35s-.61,1.31.42,1.64C135.89,69.27,136,69.5,136.22,69.87Zm-80-15.28a277.66,277.66,0,0,0,43,.21C84.83,53.08,70.51,54,56.18,54.59ZM20.31,56.87c.25,1.28.74,2.06,2,2.17,2.58.21,5.15.52,7.73.75a1.18,1.18,0,0,0,.83-.45c1.07-1.57.57-2.87-1.29-2.88C26.54,56.45,23.46,56.72,20.31,56.87Zm95.36,20.86-.35-.5c-.67.22-1.53.25-2,.7-1.73,1.77-3.36,3.64-4.95,5.55-1.1,1.32-2.07,2.77-3.09,4.16l.4,0,.9,1.21c.48-.66,1-1.34,1.44-2a11,11,0,0,1,1-1.45c1.31-1.31,2.76-2.49,4-3.89A37.58,37.58,0,0,0,115.67,77.73ZM41.89,59.21l.09-.62c-2.24-3-5.66-1.41-8.58-2.1v3.33Zm34.66,45.42c0,1.71.86,2.35,3.08,2.41a1.41,1.41,0,0,0,1.58-1.1,1.78,1.78,0,0,0-.66-2.11,1.35,1.35,0,0,0-1.82-.17A15,15,0,0,1,76.55,104.63ZM84.8,60.92H72.69C75.38,62.34,81.44,62.48,84.8,60.92ZM40.71,71.09c2.24.68,7.42,0,9.18-1.14C46.77,70.4,43.71,69.29,40.71,71.09ZM88.26,97.92c-1.92,2-1.92,2-1,3.33,1.66-.26,2.57-1.48,3.6-2.71ZM6.59,55.8l2.24-4.57a3.85,3.85,0,0,0-3.29,2.66A1.59,1.59,0,0,0,6.59,55.8ZM19.1,46.34C16.44,46.38,14,46,12,47.82c1.27-.1,2.4-.23,3.54-.27A4.5,4.5,0,0,0,19.1,46.34ZM11.94,53.7l-.69,2.4c1.6-.56,2.84-1.9,4.21-4.47ZM98.47,96.53a7.46,7.46,0,0,0-5,3.46C95.84,99.64,97.19,98.16,98.47,96.53ZM22,54.86c1.58,1.28,2.74,1.31,4,.08C24.59,55.28,23.43,53.27,22,54.86Zm94.1,32.08-.32-.37c-1.82.58-2.76,2.06-3.42,3.83ZM89.54,76.07a9.79,9.79,0,0,0,3-3.91c-.65.65-1.13,1.56-1.87,2A2.08,2.08,0,0,0,89.54,76.07ZM80.06,98.93a1.71,1.71,0,0,0-1.62,2.16C79.3,100.55,80.22,100.21,80.06,98.93ZM15.94,62.59c-.77-1.91-.77-1.91-1.46-2.12C14.21,62.06,14.21,62.06,15.94,62.59ZM101.81,81c-1.67-.09-2.22.54-1.84,1.86ZM66.12,61.39H63C64,61.63,65,62.39,66.12,61.39ZM85.89,80.16l.35.3c.44-.55,1.67-.54,1.17-2Z"/></g></g></svg>