<svg xmlns="http://www.w3.org/2000/svg" viewBox="0 0 138.61 110.36"><defs><style>.cls-1{fill:#de772c;}</style></defs><title>arrow-orange</title><g id="Layer_2" data-name="Layer 2"><g id="Layer_1-2" data-name="Layer 1"><path class="cls-1" d="M136.64,65.54a9.45,9.45,0,0,0,.53-10.8c-.73-1.31-.85-2.94-1.29-4.42a2,2,0,0,0-.55-.75c-.77-.72-1.83-1.28-2.28-2.16a7.06,7.06,0,0,0-4-3.54,2.6,2.6,0,0,1-1-.69c-.85-1-1.58-2.12-2.46-3.08a10.49,10.49,0,0,1-2.91-6,33.83,33.83,0,0,0-.83-4.1,3.88,3.88,0,0,0-.74-1.46c-.79-1-1.72-1.86-2.45-2.87s-1.52-2.16-3-2.43a1.12,1.12,0,0,1-.54-.41c-1.31-1.54-2.6-3.1-3.91-4.64-1-1.15-2-2.25-3-3.43a2.4,2.4,0,0,1-.2-3.26,1.09,1.09,0,0,0-.18-1.59c-1.18-1.13-2.25-2.38-3.48-3.46A7.2,7.2,0,0,0,97.24,4.7l.83,1.53c-2.57.6-6.9-1.44-8-4.05,1.06.43,2.13.82,3.17,1.3,1.22.57,2.36,1.37,3.82,1A8.59,8.59,0,0,0,87.14.36c-.85.27-1.12.7-.6,1.5A7.86,7.86,0,0,1,87,2.93c-.49-.07-.76-.08-1-.14a2.36,2.36,0,0,0-2.63.82,23,23,0,0,1-3.23,2.6C79.34,5,79.35,3.07,77,3.35a13.34,13.34,0,0,0,.74,3.19c.68,1.31.33,2-.74,2.86-1.45,1.13-1.48,1.63-.79,3.27A92,92,0,0,0,90,35.57c1.77,2.14,3.64,4.21,5.6,6.46-2.53.12-4.91.32-7.3.34-7.55.06-15.11,0-22.66.11-3.34.05-6.73-.38-10,.8a1.7,1.7,0,0,1-1.27-.1c-2.33-1.2-4.81-.92-7.28-.85-4.63.12-9.26.36-13.89.31-2,0-4-.9-6-.9a46.9,46.9,0,0,0-8.78.75c-5.82,1.11-11,3.56-15,8.12A13.93,13.93,0,0,0,0,59.08c-.2,2.69,2.22,3.89,2.78,6.07,0,.1.27.14.41.22,1.26.68,2.54,1.34,3.78,2a11.44,11.44,0,0,0,5.72,1.93,5.11,5.11,0,0,1,3.62,1.54,5.69,5.69,0,0,0,1.49,1c.37.18,1,.35,1.24.17,1-.66,1.92-.29,2.88-.1,2.76.54,5.66.54,8.17,2.1a1.35,1.35,0,0,0,.7.08c1.16,0,2.32-.08,3.47-.17,3.53-.29,7.06-.6,10.51-.9.16.26.35.75.48.74a3.66,3.66,0,0,0,1.25-.47c.34-.18.61-.6,1-.65,4-.64,8-1.31,12.08-1.82,3.39-.42,6.81-.65,10.26-1,0,.51-.06.77-.09,1.2,1.44-.62,3,.51,4.22-.77a6.86,6.86,0,0,0,5.23-.08,3.07,3.07,0,0,0,1.7.3,15.37,15.37,0,0,1,9.08,1.15c-1,1.35-1.92,2.57-2.85,3.77-3.8,4.91-7.34,10-9.67,15.79a2.08,2.08,0,0,1-.65.82A13.8,13.8,0,0,0,71,103.25c-.06,1.29-.26,2.85.34,3.85A6,6,0,0,0,77,110.35a76.28,76.28,0,0,0,8.54-1A28,28,0,0,0,93,107.08c2.23-1.14,4.69-1.73,6.72-3.54A81.32,81.32,0,0,1,110.4,95.8c1.42-.89,2-2.7,3.81-3a2.68,2.68,0,0,0,1.25-1c1.17-1.36,2.27-2.79,3.44-4.15q6.13-7.21,12.32-14.39a11.49,11.49,0,0,1,1.83-1.37c.21-.16.55-.32.58-.51.24-1.45,1-2,2.66-1.61-2.24-1.27-.64-2.35-.09-3.46A5.33,5.33,0,0,1,136.64,65.54ZM6.68,55.8A1.6,1.6,0,0,1,5.59,54a3.93,3.93,0,0,1,3.34-2.8C8.21,52.67,7.46,54.2,6.68,55.8Zm4.26,2.8.35-.17.82,1.74C10.83,60.08,10.85,59.35,10.94,58.6ZM11.35,56,12,53.65l3.46-2C14.93,53.39,12.8,55.7,11.35,56Zm3.18,4.36c1.33.22.88,1.5,1.72,2.16C14.35,62.2,14.35,62.2,14.53,60.37ZM12,48c1.31-1.54,4.63-2.21,7-1.49C16.92,48.31,14.35,47.12,12,48Zm14.22,6.8c-1.46,1.36-2.7,1.32-4.19,0C23.48,53.26,24.73,55.17,26.23,54.83Zm4.62,4.69a.66.66,0,0,1-.56.31c-2.65-.27-5.31-.51-7.95-.87-1.46-.21-1.44-.31-1.89-2.05,2.67-.2,5.24-.4,7.83-.57a4,4,0,0,1,1.54.1c.59.21,1.47.55,1.57,1A4.35,4.35,0,0,1,30.85,59.52Zm2.57.22V56.9c0-.07,0-.15.13-.42,2.85.62,6.24-.94,8.74,2.35C39.26,59.85,36.36,59.49,33.42,59.74Zm7.31,11.35c3.06-1.88,6.2-.71,9.35-1.16C48.28,71.11,43.08,71.77,40.73,71.09ZM80.14,98.9c.2,1.29-.7,1.66-1.57,2.12C78.29,99.83,78.81,99.13,80.14,98.9ZM81.28,106a1.38,1.38,0,0,1-1.51,1c-2.22,0-3.09-.66-3.15-2.42a17.48,17.48,0,0,0,2.24-1,1.37,1.37,0,0,1,1.83.23A1.78,1.78,0,0,1,81.28,106ZM63,61.3H66C65.45,62.16,64.81,62.19,63,61.3Zm22.58-.14c-4.36,1-8.71,1.54-13.31-.34H85.6Zm1.84,17.27c.36,1.14,0,1.56-1.5,1.81ZM88.25,101a1.11,1.11,0,0,1-1.7-.89c-.08-.69,1.66-2.2,2.34-2l2.38.52C90.14,99.46,89.26,100.29,88.25,101Zm1.46-24.81-.47-.38c.53-.56,1.07-1.1,1.58-1.68S92,72.7,92.58,72A9.32,9.32,0,0,1,89.71,76.14Zm1.54-14.33-.1-.53L94.37,61l0,.43ZM93.57,100a7.36,7.36,0,0,1,5-3.52A7.79,7.79,0,0,1,93.57,100ZM56.42,54.56C70.63,54,84.84,53,99,54.76A258,258,0,0,1,56.42,54.56ZM99.94,82.94c-.21-1.55.36-2.14,1.94-2Zm9.13,2.56a10.85,10.85,0,0,0-1,1.47c-.45.63-.92,1.25-1.32,1.79l-1.13-1.09-.34-.15c1.68-2,3.35-4.11,5-6.15.77-.91,1.69-1.71,2.37-2.69a2.79,2.79,0,0,1,3.17-1.22,33.25,33.25,0,0,1-2.52,3.82C112,82.79,110.48,84.07,109.07,85.5Zm3.31,4.69-.13.16a2,2,0,0,0,0-.24h0a6,6,0,0,1,3.26-3.47,7.91,7.91,0,0,1,.78-.29A12.46,12.46,0,0,1,112.38,90.19Z"/></g></g></svg>