<?xml version="1.0" encoding="utf-8"?>
<!-- Generator: Adobe Illustrator 23.0.1, SVG Export Plug-In . SVG Version: 6.00 Build 0)  -->
<svg version="1.1" id="Layer_1" xmlns="http://www.w3.org/2000/svg" xmlns:xlink="http://www.w3.org/1999/xlink" x="0px" y="0px"
	 viewBox="0 0 20.1 20.1" style="enable-background:new 0 0 20.1 20.1;" xml:space="preserve">
<style type="text/css">
	.st0{fill:#FFFFFF;}
</style>
<g>
	<path class="st0" d="M19.1,18.6c-6.1,0-12.3,0-18.4,0c0-5.4,0-10.8,0-16.2c6.1,0,12.3,0,18.4,0C19.1,7.8,19.1,13.2,19.1,18.6z
		 M1.7,4.2C1.7,4.2,1.7,4.2,1.7,4.2C1.7,4.2,1.7,4.2,1.7,4.2C1.7,4.3,1.7,4.3,1.7,4.2C1.7,4.3,1.7,4.2,1.7,4.2
		C1.7,4.2,1.7,4.2,1.7,4.2C1.7,4.2,1.8,4.2,1.7,4.2C1.8,4.2,1.8,4.2,1.7,4.2C1.7,4.2,1.7,4.2,1.7,4.2z M1.5,5.9
		C1.5,5.9,1.5,5.9,1.5,5.9C1.5,5.9,1.5,5.9,1.5,5.9C1.4,5.9,1.4,5.9,1.5,5.9C1.5,5.9,1.5,5.9,1.5,5.9C1.5,5.9,1.5,5.9,1.5,5.9
		C1.5,6,1.5,6,1.5,5.9C1.5,6,1.5,6,1.5,5.9C1.5,6,1.5,5.9,1.5,5.9z M4.8,9.1C4.8,9.1,4.8,9.1,4.8,9.1C4.8,9,4.7,9,4.7,9
		c0,0,0,0,0-0.1c0.1,0,0.1,0,0.2,0c0,0-0.1-0.1-0.1-0.1c0,0-0.1,0-0.1,0c0,0-0.1,0-0.1,0.1c0,0,0,0,0,0c0,0,0,0,0,0c0,0,0,0,0,0
		c0,0,0,0,0,0C4.6,9,4.6,9,4.6,9c0,0,0,0,0.1,0C4.7,9.1,4.7,9,4.8,9.1C4.8,9.1,4.8,9.1,4.8,9.1C4.8,9.1,4.8,9.1,4.8,9.1
		C4.8,9.1,4.8,9.1,4.8,9.1C4.8,9.1,4.8,9.1,4.8,9.1C4.8,9.1,4.8,9.1,4.8,9.1z M6.8,16C6.8,16,6.8,16,6.8,16C6.8,16,6.8,16,6.8,16
		C6.8,16,6.8,16,6.8,16C6.8,16,6.8,16,6.8,16C6.8,16,6.8,16,6.8,16C6.8,16,6.8,16,6.8,16C6.8,16,6.8,16,6.8,16C6.8,16,6.8,16,6.8,16
		z M4.9,9.2C4.9,9.2,4.9,9.2,4.9,9.2C4.9,9.1,4.9,9.1,4.9,9.2C4.9,9.1,4.9,9.1,4.9,9.2C4.9,9.1,4.9,9.2,4.9,9.2
		C4.9,9.2,4.9,9.2,4.9,9.2C5,9.2,5,9.3,5,9.3c0.1,0,0.1,0,0.1,0.1c0,0,0,0,0,0c0,0,0.1,0,0.2,0c0,0,0,0,0,0c0,0,0,0,0,0c0,0,0,0,0,0
		c0,0,0,0,0,0c0-0.1-0.1-0.1-0.1-0.2c0.2,0,0.2,0.1,0.2,0.2c0,0,0,0,0.1,0c0.1,0.1,0.2,0,0.2,0C5.8,9.4,5.9,9.5,6,9.5
		c0,0,0,0.1,0,0.1c0,0,0.1,0,0.1,0C6.3,9.7,6.4,9.9,6.6,10c0,0,0,0-0.1,0C6.6,10,6.6,10,6.6,10c0,0,0,0,0,0c0,0,0,0,0,0c0,0,0,0,0,0
		c0,0,0,0,0,0c0,0,0,0,0,0c0,0,0.1,0,0.1,0c0,0.1,0.1,0.1,0.2,0.2c-0.1,0-0.1,0-0.1,0c0,0,0,0,0,0c0,0,0,0,0,0
		c-0.1,0-0.2-0.1-0.3-0.1C6.3,10,6.3,10,6.3,9.9c0,0,0,0,0.1,0c0-0.1-0.1-0.2-0.2-0.2c0,0-0.1,0-0.1,0c0,0,0,0.1,0,0.1
		c-0.1,0-0.2,0-0.3-0.1c-0.1,0-0.1-0.1-0.2-0.1c0,0,0,0,0,0c0,0,0,0,0,0c0,0,0,0,0,0c0,0,0,0,0,0c0,0,0,0.1,0,0.1
		C5.9,9.8,6,10,6.1,10c0.1,0.1,0.2,0.2,0.2,0.3c0,0,0.1,0,0.1,0c0,0,0,0.1,0,0.1c0,0,0,0,0.1-0.1c0,0,0,0,0-0.1
		c0.2,0,0.3,0.1,0.4,0.2c0,0,0,0-0.1,0.1c0.1,0,0.1,0,0.1,0.1c0,0,0,0.1,0,0.1c0,0,0,0,0,0.1c0,0,0,0,0,0c0,0,0,0,0,0c0,0,0,0,0,0
		c0,0,0,0,0,0C7,10.8,7.1,10.9,7.2,11c0,0,0,0-0.1,0c-0.2,0.1-0.3,0.2-0.5,0.3c-0.1,0-0.1,0.1-0.2,0.1c-0.1,0.1-0.2,0.2-0.3,0.2
		C6.2,11.9,6,12,5.9,12.1c0,0,0,0,0,0c0,0,0,0,0,0.1c0,0-0.1,0.1-0.1,0.1c0,0,0,0,0,0c-0.1,0-0.1-0.1-0.2,0
		c-0.1,0.1-0.2,0.1-0.3,0.1c-0.1,0.1-0.2,0.2-0.2,0.3c0,0,0,0,0,0.1c0,0-0.1,0-0.1,0c-0.3,0.3-0.7,0.6-1.1,0.9c0,0,0.1,0,0.1,0.1
		c-0.1,0-0.2,0.1-0.4,0.1c0,0.1,0,0.1,0,0.1c0,0-0.1,0.1-0.1,0.1c0,0,0,0,0,0c0,0,0,0-0.1,0c-0.3,0.2-0.5,0.4-0.7,0.6
		c-0.1,0-0.1,0.1-0.2,0.2c-0.1,0.1-0.1,0.1-0.2,0.2c-0.1,0.1-0.1,0.1-0.2,0.2c-0.1,0-0.1,0.1-0.2,0.2C2.1,15.4,2,15.5,2,15.6
		c-0.1,0.1-0.1,0.2-0.1,0.3c0,0.1-0.1,0.2-0.1,0.3c0,0.1,0,0.1,0,0.2c0,0.1,0,0.1,0.1,0.2c0.1,0,0.1,0.1,0.1,0.1c0,0.1,0,0.1,0,0.2
		c0,0.1,0,0.1,0,0.2c0,0,0.1,0,0.1,0c0,0.1,0.1,0.1,0.2,0.2c0,0,0.1,0.1,0.1,0.1c0,0,0,0,0,0c0,0,0,0,0,0c0,0,0,0,0,0c0,0,0,0,0,0
		c0,0,0,0,0-0.1c0,0,0,0,0.1,0c0,0,0-0.1,0-0.2c0.1,0.1,0.1,0.2,0.2,0.2c0.3,0.3,0.6,0.4,1,0.4c0.2,0,0.4,0,0.6-0.1
		c0.2,0,0.3-0.1,0.5-0.2c0.1-0.1,0.2-0.2,0.3-0.3c0.2-0.1,0.3-0.3,0.5-0.4c0.2-0.1,0.3-0.3,0.5-0.5c0,0,0,0,0,0c0,0,0,0.1,0,0.1
		c0-0.1,0.1-0.1,0.1-0.1c0.1,0,0.1,0,0.2-0.1c-0.1,0-0.1,0-0.2,0.1c0,0-0.1,0-0.1,0c0.1,0,0.1-0.1,0.2-0.1c0.1-0.1,0.1-0.1,0.2-0.2
		c0,0,0,0,0,0c0.1,0,0.1-0.1,0.2-0.2c0.1-0.1,0.1-0.1,0.2-0.2c0.1-0.1,0.3-0.3,0.4-0.4c0,0,0.1,0,0.1,0c0.1,0,0.1-0.1,0.2-0.2
		c0,0,0.1-0.1,0.1-0.1c0,0.2,0.2,0.2,0.3,0.2c-0.1,0.1-0.1,0.1-0.2,0.2c0,0,0,0,0,0c0,0,0,0,0,0c0,0,0,0,0,0c0,0,0,0,0,0
		c0.1,0,0.2,0,0.2-0.1c0,0,0-0.1,0-0.1c0,0,0-0.1,0-0.1C7.8,15,7.7,15,7.6,15c0-0.1,0.1-0.1,0.1-0.1c0,0,0.1,0,0.1,0
		c0-0.1,0.1-0.2,0.1-0.3c0.1-0.1,0.2-0.2,0.3-0.2c0-0.1,0-0.1,0.1-0.1c0.1-0.1,0.2-0.2,0.3-0.3c0,0,0,0,0.1,0c0,0,0,0,0,0
		c0,0,0,0,0,0c0,0,0,0,0,0c0,0,0,0,0.1,0c0,0,0,0,0,0c0,0,0,0-0.1,0c0-0.1,0.1-0.1,0.2-0.2c0,0,0,0,0,0c0,0,0,0.1-0.1,0.1
		c0,0,0,0,0,0c-0.2,0.2-0.2,0.4-0.4,0.4c0,0,0,0,0,0c0,0,0,0,0,0c0,0,0,0,0,0c0,0,0,0,0,0c0,0,0,0,0,0c-0.1,0-0.1,0-0.2,0.1
		c0,0,0,0.1,0,0.1c0,0,0.1,0,0.1,0c-0.1,0.1-0.1,0.2-0.2,0.2c0,0.1-0.1,0.1-0.2,0.2c0.1,0,0.1,0,0.2-0.1c0.1-0.1,0.2-0.2,0.3-0.3
		c0.1-0.1,0.2-0.1,0.3-0.1c0,0,0,0,0,0c0,0,0,0,0,0c0,0,0.1,0,0.1-0.1c0,0,0,0,0-0.1c-0.1,0-0.1,0-0.1,0c0,0,0,0,0,0
		C9,14,9.1,13.8,9.2,13.7c0,0,0,0,0.1,0c0,0,0.1-0.1,0.1-0.1c0,0,0.1,0,0.1,0c0,0,0,0,0.1,0c0,0,0,0.1,0,0.1c0,0,0,0,0,0
		c0,0,0,0,0,0c0,0,0,0,0,0c0,0,0,0,0,0c0.1-0.1,0.1-0.1,0.2-0.2c0.1,0,0.1-0.1,0.1-0.1c0.1-0.1,0.2-0.2,0.2-0.3c0,0,0.1,0,0.1,0
		c0.1,0.1,0.2,0.1,0.3,0.2c0.1,0,0.1,0,0.1,0c0.1,0,0.1,0.1,0.2,0.1c0.1,0.1,0.3,0.2,0.4,0.4c0,0,0,0,0,0c0.1,0.1,0.2,0.2,0.4,0.2
		c0.1,0.1,0.2,0.1,0.3,0.2c0,0,0,0,0.1,0c0.1,0.1,0.2,0.2,0.4,0.3c0,0,0,0,0,0c0,0,0,0,0,0.1c0,0-0.1-0.1-0.2-0.1
		c0,0.1,0.1,0.2,0.1,0.2c0,0,0-0.1,0-0.1c0,0,0.1,0,0.1,0c0,0,0-0.1,0-0.1c0.1,0.1,0.2,0.2,0.4,0.3c0.1,0,0.3,0.2,0.4,0.2
		c0.1,0.1,0.1,0.1,0.2,0.2c0,0,0,0.1,0,0.1c0.1,0,0.2,0,0.3,0.1c0,0,0,0.1,0,0.1c0,0,0,0-0.1,0c0.2,0,0.3,0.2,0.5,0.2c0,0,0,0,0,0
		c0.1,0,0.1,0.1,0.2,0.1c0.1,0,0.1,0.1,0.1,0.2c0.1,0.1,0.1,0.1,0.2,0.2c0.2,0.1,0.4,0.3,0.6,0.4c0.1,0.1,0.2,0.2,0.3,0.2
		c0.1,0.1,0.1,0.1,0.2,0.2c0,0,0,0,0.1,0c0.1,0.1,0.1,0.2,0.3,0.2c0,0,0,0.1,0,0.1c0.1,0.1,0.3,0.1,0.4,0.2c0.1,0,0.2,0,0.3,0
		c0,0-0.1,0-0.1,0c0.1,0,0.2,0,0.3,0.1c0.1,0,0.2-0.1,0.2-0.2c0.1,0,0.2,0,0.2,0c0,0,0.1-0.1,0.1-0.1c0,0,0,0.1,0.1,0.1c0,0,0,0,0,0
		c0,0,0,0,0,0c0,0,0,0,0,0c0,0,0,0,0,0c0.2,0,0.3-0.1,0.5-0.2c0.1-0.1,0.2-0.2,0.3-0.3c0.1-0.1,0.1-0.2,0.2-0.3c-0.1,0,0-0.1,0-0.1
		c0.1-0.1,0.2-0.3,0.2-0.4c0-0.2,0-0.3,0.1-0.5c0,0,0,0-0.1,0c0,0,0,0-0.1-0.1c0-0.1,0-0.1,0-0.2c0.1-0.1,0-0.3,0-0.4c0,0,0,0-0.1,0
		c0-0.2,0-0.4,0-0.5c0,0,0,0,0,0c0,0,0,0,0,0c0,0,0-0.1,0-0.1c-0.1,0-0.1,0-0.2,0c0,0,0,0,0,0c0,0,0.1-0.1,0.1-0.1
		C18.2,14.1,18.1,14,18,14c-0.2,0-0.3-0.1-0.5-0.2c0,0,0,0,0,0c0,0,0,0,0,0c0,0,0,0,0,0c0,0,0,0,0,0c0,0.1,0,0-0.1,0
		c-0.1,0-0.1,0-0.1-0.1c-0.1-0.1-0.2-0.3-0.4-0.3c-0.2-0.1-0.3-0.2-0.5-0.2c0-0.1-0.1-0.1-0.1-0.2c-0.1,0-0.2-0.1-0.2-0.1
		c-0.1-0.1-0.2-0.1-0.3-0.2c0,0,0,0,0,0c-0.1,0-0.1-0.1-0.2-0.1c-0.1,0-0.1-0.1-0.2-0.1c-0.1-0.1-0.2-0.2-0.4-0.2
		c0-0.1,0-0.1-0.1-0.1c0,0-0.1-0.1-0.1-0.1c-0.1-0.1-0.3-0.2-0.4-0.2c0-0.1,0-0.1-0.1-0.1c-0.2-0.1-0.3-0.2-0.4-0.3
		c0,0-0.1,0-0.1-0.1c-0.2-0.2-0.4-0.3-0.6-0.5c-0.1-0.1-0.1-0.1-0.2-0.2c0,0,0,0,0,0c0.1-0.1,0.3-0.2,0.4-0.3
		c0.2-0.1,0.3-0.2,0.4-0.3c0.1-0.1,0.1-0.2,0.2-0.2c0.2-0.1,0.3-0.2,0.5-0.4c0,0,0-0.1,0.1,0c0,0-0.1,0-0.1,0c0.1,0,0.1,0,0.2,0
		c0,0,0-0.1,0-0.1c0,0,0,0-0.1,0c0,0,0-0.1,0.1-0.1c0,0,0,0,0,0C14.8,9,15,8.8,15.1,8.6c0.1-0.1,0.2-0.2,0.3-0.3c0,0,0.1,0,0.1,0
		c0-0.1,0-0.1,0.1-0.2c0,0,0.1,0,0.1-0.1c0,0,0,0.1,0.1,0.1C15.8,8,15.9,8,15.9,7.9c0-0.1,0.1-0.1,0.1-0.1c0.1,0,0.1-0.1,0.2-0.2
		c0.1,0,0.2-0.1,0.3-0.2C16.7,7.3,16.9,7.1,17,7c0,0,0.1-0.1,0.1-0.1c0,0,0.1-0.1,0.1-0.1c0.1,0,0.2-0.1,0.2-0.2
		c0-0.1,0.1-0.1,0.1-0.1c0.1,0,0.1-0.1,0.1-0.1c0,0,0,0,0.1,0C18,6.2,18.1,6.1,18.1,6c0-0.1,0.1-0.2,0.1-0.3c0,0,0,0,0,0
		c0,0,0,0,0,0c0,0,0,0,0-0.1c0,0,0,0,0.1,0c0-0.1,0-0.2,0-0.3c0,0-0.1-0.1-0.1-0.1c0,0,0-0.1,0-0.1c0.1-0.1,0-0.1,0-0.2
		c0,0-0.1-0.1,0-0.1c0,0,0,0,0.1,0c0-0.2,0-0.4-0.2-0.6C18,4.2,18,4.1,18,4.1c-0.1-0.1-0.2-0.3-0.3-0.4c0,0,0,0-0.1,0
		c-0.1,0-0.2-0.1-0.2-0.2c-0.1-0.1-0.1-0.1-0.2-0.2c-0.1-0.1-0.2-0.1-0.4-0.1c0,0,0,0,0,0c0,0,0,0,0,0.1c-0.2,0-0.4-0.1-0.5-0.1
		c0,0-0.1,0.1-0.1,0.1c-0.2,0-0.3-0.1-0.5-0.1c0,0,0,0,0,0c0,0,0,0,0,0c0,0,0,0,0,0c0,0,0,0,0,0c0,0,0,0,0,0c0,0-0.1,0-0.1,0
		c0,0,0,0-0.1,0.1c0,0,0,0.1,0,0.2c0,0,0,0,0,0c0,0,0,0,0,0.1c0-0.1,0-0.1-0.1-0.1c-0.1,0-0.2,0.1-0.2,0.2C15,3.7,14.9,3.9,14.8,4
		c0,0,0,0,0,0c0,0,0,0,0,0.1c-0.1,0.1-0.2,0.1-0.3,0.2c-0.1,0.1-0.2,0.1-0.2,0.2c0,0,0,0,0,0c0,0,0,0,0,0c-0.1,0.2-0.2,0.3-0.3,0.5
		c-0.1,0-0.2,0.1-0.3,0.2c-0.1,0.1-0.1,0.1-0.2,0.2c-0.1,0.1-0.2,0.1-0.3,0.2c-0.1,0.1-0.1,0.2-0.2,0.2c-0.2,0.1-0.2,0.2-0.3,0.4
		c0,0,0,0,0,0c-0.1,0.1-0.2,0.2-0.3,0.3c-0.1,0.1-0.1,0.2-0.2,0.3c0,0,0,0-0.1,0c-0.1,0-0.1,0.1-0.2,0.2c-0.2,0.1-0.4,0.2-0.5,0.4
		c-0.2,0.2-0.4,0.3-0.6,0.5c-0.1,0.1-0.2,0.1-0.3,0.3c0,0,0,0.1,0,0.1c0,0.1-0.1,0.1-0.1,0.2c0,0,0,0,0,0c0,0,0,0,0,0c0,0,0,0,0,0
		c0,0,0,0,0,0c0,0,0,0,0.1,0c0,0.1,0,0.1,0,0.2c-0.1,0-0.1,0.1-0.2,0.1c0-0.1,0-0.1,0-0.1c-0.1,0-0.1,0-0.2,0.1c-0.1,0-0.1,0-0.1,0
		C9.9,8.4,9.9,8.4,9.9,8.4c0,0,0.1,0.1,0.2,0c-0.1,0-0.1-0.1-0.1,0c-0.1,0-0.2-0.1-0.2-0.1c0,0,0,0-0.1-0.1c0,0,0-0.1,0-0.1
		C9.5,8,9.4,8,9.3,7.9c0,0,0,0,0,0c0,0,0,0,0,0c0,0,0,0,0,0c0,0,0,0,0,0c0,0,0,0,0,0.1C9.2,7.9,9.1,7.9,9,7.8
		C8.9,7.7,8.8,7.6,8.6,7.5C8.4,7.4,8.3,7.2,8.2,7.1C8,7.1,7.9,6.9,7.7,6.9c-0.1,0-0.1,0-0.2,0c0,0,0,0,0,0C7.5,6.6,7.3,6.5,7.3,6.4
		C7.2,6.3,7.1,6.3,7,6.3c0,0-0.1-0.1-0.1-0.1c0,0,0-0.1,0-0.1C6.8,6,6.6,5.9,6.5,5.8C6.4,5.7,6.2,5.6,6.1,5.5C6,5.4,5.9,5.3,5.8,5.3
		c0,0-0.1,0-0.1,0C5.7,5.2,5.6,5.1,5.6,5C5.5,5,5.5,5,5.4,5c0,0,0,0,0-0.1c0,0,0,0,0,0C5.2,4.9,5,4.8,4.9,4.7
		C4.8,4.6,4.8,4.5,4.7,4.5C4.5,4.3,4.2,4.2,4,4C3.8,3.9,3.6,3.8,3.4,3.7C3.3,3.7,3.1,3.6,2.9,3.6c-0.1,0-0.2,0-0.3,0
		c-0.1,0-0.1,0.1-0.2,0.1c0,0,0,0.1,0,0.1c0,0-0.1,0-0.1,0C2.3,3.9,2.1,3.9,2,4.1C2,4.1,1.9,4.2,1.8,4.3c0,0,0,0.1-0.1,0.1
		c0,0,0,0,0,0c0,0,0,0,0,0c0.1,0.1,0.1,0,0.2,0C2,4.6,1.9,4.7,1.8,4.8c0,0.1-0.1,0.1-0.1,0.2c0,0.1-0.1,0.2-0.1,0.2
		c0,0.1,0,0.2,0,0.2c0,0.1,0,0.1,0,0.2c0,0.1,0,0.3,0.1,0.4c0.1,0.3,0.3,0.6,0.6,0.8c0.1,0,0.1,0.1,0.2,0.1C2.8,7.2,3,7.3,3.3,7.5
		C3.5,7.7,3.7,7.9,4,8c0.3,0.2,0.6,0.4,0.9,0.6C4.9,8.7,5,8.8,5.1,8.9C5.2,8.9,5.2,9,5.3,9C5.2,9,5.2,9,5.2,9.1
		c-0.1,0.1,0,0.2,0,0.2C5.1,9.3,5,9.2,4.9,9.2C4.9,9.2,4.9,9.2,4.9,9.2z M6.9,15.9C6.9,15.9,6.9,15.9,6.9,15.9
		C6.9,15.9,6.9,15.9,6.9,15.9C6.9,15.9,6.9,15.9,6.9,15.9C6.9,15.9,6.9,15.9,6.9,15.9C6.9,15.9,6.9,15.9,6.9,15.9
		C6.9,15.9,6.9,15.9,6.9,15.9C6.9,15.9,6.9,15.9,6.9,15.9C6.9,15.9,6.9,15.9,6.9,15.9z M7.2,15.7C7.2,15.7,7.2,15.7,7.2,15.7
		C7.2,15.6,7.3,15.6,7.2,15.7c0.1-0.1,0.2-0.1,0.2-0.2c0,0,0,0,0,0c0,0,0,0,0,0c0,0,0,0,0,0c0,0,0,0,0,0c0,0,0-0.1,0.1-0.1
		c0,0,0,0,0,0c0,0,0,0,0,0c0,0,0,0,0,0c0,0,0,0,0,0c-0.1,0-0.1,0-0.1,0.1c0-0.1,0-0.1,0-0.2c-0.1,0.1-0.1,0.1-0.1,0.1
		c0,0,0,0.1,0,0.1c0,0,0,0,0,0c0,0,0,0,0,0c0,0,0,0,0,0c0,0,0,0,0,0C7.3,15.5,7.2,15.6,7.2,15.7C7.2,15.7,7.2,15.7,7.2,15.7
		C7.2,15.7,7.2,15.7,7.2,15.7C7,15.8,7,15.8,7,15.9C7,15.8,7.1,15.8,7.2,15.7C7.2,15.7,7.2,15.7,7.2,15.7z M6,10.1
		C6,10.1,6,10,6,10.1C6,10,6,10,6,10.1C6,10,6,10,6,10.1C6,10,6,10,6,10.1C6,10,6,10.1,6,10.1C6,10.1,6,10.1,6,10.1
		C6,10.1,6,10.1,6,10.1C6,10.1,6,10.1,6,10.1z M8.6,14C8.6,14,8.6,14,8.6,14C8.6,14,8.6,14,8.6,14C8.7,14,8.6,14,8.6,14
		C8.6,14,8.6,14,8.6,14C8.6,14,8.6,14,8.6,14C8.6,14,8.6,14,8.6,14C8.6,14,8.6,14,8.6,14C8.6,14,8.6,14,8.6,14z M5.5,17.1
		C5.5,17.1,5.5,17.1,5.5,17.1C5.5,17.2,5.5,17.2,5.5,17.1c0,0.1,0,0.1,0,0.2c0.1,0,0.1-0.1,0.2-0.1C5.6,17.2,5.6,17.2,5.5,17.1
		C5.5,17.2,5.5,17.1,5.5,17.1C5.5,17.1,5.6,17.1,5.5,17.1C5.6,17.1,5.6,17.1,5.5,17.1C5.6,17.1,5.6,17.1,5.5,17.1
		C5.6,17.1,5.6,17.1,5.5,17.1z M2.2,7.3C2.2,7.4,2.2,7.4,2.2,7.3C2.3,7.4,2.3,7.4,2.2,7.3c0.1,0,0,0,0.2,0.1c0,0,0,0,0,0
		C2.3,7.4,2.3,7.4,2.2,7.3C2.3,7.4,2.3,7.4,2.2,7.3z M5.3,17.4C5.3,17.5,5.3,17.5,5.3,17.4C5.3,17.5,5.3,17.5,5.3,17.4
		C5.3,17.5,5.3,17.5,5.3,17.4C5.3,17.5,5.3,17.5,5.3,17.4c-0.1,0.1-0.1,0.1-0.1,0.1c0,0,0,0,0,0C5.2,17.6,5.2,17.5,5.3,17.4z
		 M2.1,17.4C2.1,17.4,2.1,17.4,2.1,17.4C2.1,17.4,2.1,17.4,2.1,17.4C2,17.4,2,17.4,2.1,17.4C2,17.4,2.1,17.4,2.1,17.4
		C2.1,17.4,2.1,17.4,2.1,17.4C2.1,17.4,2.1,17.4,2.1,17.4C2.1,17.5,2.1,17.5,2.1,17.4C2.1,17.4,2.1,17.4,2.1,17.4z M3.7,8.3
		C3.7,8.3,3.7,8.3,3.7,8.3C3.7,8.3,3.7,8.3,3.7,8.3C3.7,8.3,3.7,8.3,3.7,8.3C3.7,8.3,3.7,8.3,3.7,8.3C3.7,8.3,3.7,8.3,3.7,8.3
		C3.7,8.3,3.7,8.4,3.7,8.3C3.7,8.4,3.7,8.4,3.7,8.3C3.7,8.4,3.7,8.3,3.7,8.3z M4.4,17.9C4.4,17.9,4.4,17.9,4.4,17.9
		c0.2-0.1,0.3-0.1,0.3-0.2C4.6,17.7,4.5,17.7,4.4,17.9C4.4,17.8,4.4,17.8,4.4,17.9C4.3,17.9,4.3,17.8,4.4,17.9
		C4.3,17.9,4.3,17.9,4.4,17.9c-0.1,0-0.2,0-0.3,0c0,0,0,0,0,0.1c0,0,0,0,0,0C4.1,18,4.2,18,4.4,17.9C4.3,17.9,4.4,17.9,4.4,17.9z
		 M4.6,17.6C4.6,17.6,4.6,17.6,4.6,17.6C4.6,17.6,4.6,17.6,4.6,17.6C4.6,17.6,4.6,17.6,4.6,17.6C4.6,17.6,4.6,17.6,4.6,17.6
		C4.6,17.6,4.6,17.6,4.6,17.6C4.6,17.6,4.7,17.6,4.6,17.6C4.7,17.6,4.7,17.6,4.6,17.6C4.7,17.6,4.6,17.6,4.6,17.6z M2.5,7.4
		C2.5,7.4,2.5,7.4,2.5,7.4C2.5,7.4,2.5,7.4,2.5,7.4C2.5,7.5,2.5,7.4,2.5,7.4C2.5,7.4,2.5,7.4,2.5,7.4C2.5,7.4,2.5,7.4,2.5,7.4
		c0-0.1-0.1-0.1-0.1-0.1C2.4,7.3,2.4,7.4,2.5,7.4z M6.2,16.6c0,0.1,0,0.1-0.1,0.2c0.1,0,0.1-0.1,0.1-0.1C6.2,16.6,6.2,16.6,6.2,16.6
		C6.2,16.6,6.2,16.6,6.2,16.6C6.2,16.6,6.2,16.6,6.2,16.6C6.2,16.5,6.2,16.5,6.2,16.6C6.2,16.5,6.2,16.6,6.2,16.6z M4.4,8.5
		C4.4,8.5,4.4,8.5,4.4,8.5C4.4,8.5,4.4,8.5,4.4,8.5C4.4,8.5,4.4,8.5,4.4,8.5C4.4,8.5,4.4,8.5,4.4,8.5c0-0.1-0.1-0.1-0.2-0.1
		C4.2,8.5,4.3,8.5,4.4,8.5z M4.4,8.8C4.4,8.8,4.4,8.8,4.4,8.8C4.4,8.8,4.4,8.8,4.4,8.8C4.4,8.8,4.4,8.8,4.4,8.8
		C4.4,8.8,4.4,8.8,4.4,8.8c-0.1,0-0.1-0.1-0.2-0.2c0,0,0,0,0,0c0,0,0,0,0.1,0c0,0,0,0,0,0c0,0,0,0.1,0,0.1C4.3,8.8,4.4,8.8,4.4,8.8z
		 M1.8,6.7c0-0.1-0.1-0.1-0.2-0.2c0,0,0,0,0,0c0-0.1,0-0.1-0.1-0.2c0,0-0.1,0-0.1,0c0.1,0.1,0.1,0.1,0.2,0.2
		C1.7,6.6,1.8,6.6,1.8,6.7c0,0.1,0.1,0.1,0.1,0.2C2,6.8,1.9,6.7,1.8,6.7z M7.1,15.9C7.1,16,7,16,7,16c0,0,0.1,0,0.1,0
		C7.1,16,7.2,16,7.1,15.9C7.1,15.9,7.1,15.9,7.1,15.9C7.2,15.9,7.2,15.9,7.1,15.9C7.2,15.9,7.2,15.9,7.1,15.9
		C7.2,15.9,7.1,15.9,7.1,15.9z M3.5,7.8C3.5,7.9,3.6,7.9,3.7,8c0,0,0-0.1,0-0.1C3.6,7.8,3.6,7.8,3.5,7.8C3.5,7.8,3.5,7.8,3.5,7.8z
		 M4.2,8.9c0-0.1-0.1-0.2-0.2-0.2c0,0,0,0.1,0,0.1C4.1,8.9,4.2,8.9,4.2,8.9z M6.7,15.9C6.7,15.9,6.7,15.9,6.7,15.9
		C6.7,15.9,6.7,15.8,6.7,15.9c0.1-0.1,0.1-0.1,0.2-0.2C6.7,15.7,6.7,15.8,6.7,15.9C6.7,15.8,6.7,15.9,6.7,15.9z M9.3,13.9
		c0-0.1,0-0.1,0.1-0.1C9.3,13.8,9.3,13.8,9.3,13.9C9.3,13.9,9.3,13.9,9.3,13.9z M5.2,17.4C5.3,17.4,5.3,17.4,5.2,17.4
		c0.1-0.1,0.1-0.1,0.1-0.2C5.3,17.3,5.2,17.3,5.2,17.4C5.2,17.4,5.2,17.4,5.2,17.4z M2.7,7.7c0,0-0.1-0.1-0.1-0.1c0,0-0.1,0-0.1,0
		C2.6,7.6,2.6,7.7,2.7,7.7z M5.9,9.8c0-0.1-0.1-0.1-0.2-0.1C5.8,9.7,5.9,9.7,5.9,9.8z M8.4,14.4c-0.1,0-0.1,0.1-0.2,0.1c0,0,0,0,0,0
		c0,0,0.1,0,0.1,0C8.3,14.5,8.3,14.5,8.4,14.4z M3.4,7.8C3.4,7.8,3.3,7.8,3.4,7.8c-0.1,0-0.1,0-0.1,0.1C3.3,7.9,3.3,7.9,3.4,7.8
		C3.4,7.8,3.4,7.8,3.4,7.8z M5.9,16.5c0,0,0,0.1,0.1,0.1C6,16.6,6,16.6,5.9,16.5C5.9,16.5,5.9,16.5,5.9,16.5z M6.7,10.5
		C6.7,10.6,6.7,10.6,6.7,10.5c0,0.1,0.1,0.1,0.2,0.1C6.8,10.6,6.8,10.5,6.7,10.5z M3.2,8c0.1,0,0.1,0.1,0.1,0.1C3.3,8,3.3,8,3.2,8z
		 M2.1,6.8C2.1,6.7,2.1,6.7,2.1,6.8C2,6.8,2.1,6.8,2.1,6.8z M1.6,4.6C1.6,4.6,1.6,4.6,1.6,4.6C1.6,4.5,1.6,4.5,1.6,4.6
		C1.6,4.5,1.6,4.6,1.6,4.6z M3.5,8.1c0,0,0.1,0,0.1,0C3.6,8.1,3.6,8.1,3.5,8.1C3.5,8.1,3.5,8.1,3.5,8.1z M6.3,16.4
		C6.3,16.4,6.3,16.4,6.3,16.4C6.3,16.4,6.2,16.4,6.3,16.4c-0.1,0-0.1,0-0.1,0C6.2,16.4,6.2,16.5,6.3,16.4
		C6.2,16.4,6.3,16.4,6.3,16.4z M2.3,17.6c0.1,0,0.1,0,0.1,0C2.4,17.6,2.4,17.5,2.3,17.6C2.3,17.5,2.3,17.6,2.3,17.6z M8.7,14.5
		C8.6,14.5,8.6,14.5,8.7,14.5C8.6,14.5,8.7,14.5,8.7,14.5z M7.9,15.1C7.9,15.1,7.9,15.1,7.9,15.1C7.9,15.1,7.9,15.1,7.9,15.1
		C7.9,15.2,7.9,15.2,7.9,15.1C7.9,15.1,7.9,15.1,7.9,15.1z M2.4,17.7C2.4,17.7,2.4,17.8,2.4,17.7C2.4,17.8,2.4,17.8,2.4,17.7
		C2.4,17.8,2.4,17.7,2.4,17.7C2.4,17.7,2.4,17.7,2.4,17.7z M6.5,16.3C6.5,16.3,6.5,16.3,6.5,16.3c0,0-0.1,0-0.1,0c0,0,0,0,0,0
		C6.5,16.3,6.5,16.3,6.5,16.3z M5.4,9.7C5.5,9.7,5.5,9.7,5.4,9.7C5.5,9.7,5.5,9.6,5.4,9.7C5.4,9.6,5.4,9.7,5.4,9.7z M5.2,9.5
		C5.2,9.4,5.2,9.4,5.2,9.5c0,0-0.1,0-0.1,0C5.1,9.4,5.1,9.4,5.2,9.5C5.2,9.5,5.2,9.5,5.2,9.5z M1.4,4.6C1.5,4.6,1.5,4.6,1.4,4.6
		C1.5,4.6,1.5,4.6,1.4,4.6C1.5,4.6,1.5,4.6,1.4,4.6C1.4,4.6,1.4,4.6,1.4,4.6z M6.3,16.3C6.3,16.3,6.3,16.3,6.3,16.3
		C6.4,16.3,6.4,16.3,6.3,16.3C6.3,16.3,6.3,16.3,6.3,16.3C6.3,16.3,6.3,16.3,6.3,16.3z M8.2,14.9C8.2,14.9,8.2,14.9,8.2,14.9
		C8.1,14.9,8.2,14.9,8.2,14.9C8.2,14.9,8.2,14.9,8.2,14.9C8.2,14.9,8.2,14.9,8.2,14.9z M3.7,8.2C3.7,8.2,3.7,8.2,3.7,8.2
		C3.7,8.2,3.7,8.2,3.7,8.2C3.7,8.2,3.7,8.2,3.7,8.2C3.7,8.2,3.7,8.2,3.7,8.2z M3.4,8.1C3.4,8.1,3.4,8.1,3.4,8.1
		C3.4,8.1,3.4,8.1,3.4,8.1C3.4,8.1,3.4,8.1,3.4,8.1C3.4,8.1,3.4,8.1,3.4,8.1z M6.5,10.4C6.5,10.4,6.5,10.4,6.5,10.4
		C6.5,10.4,6.5,10.4,6.5,10.4C6.5,10.5,6.5,10.5,6.5,10.4C6.5,10.4,6.5,10.4,6.5,10.4z M9.2,14C9.2,14,9.2,14,9.2,14
		C9.2,14,9.2,14,9.2,14C9.2,14,9.2,14,9.2,14C9.2,14,9.2,14,9.2,14z M8.7,14.1C8.7,14.1,8.7,14.1,8.7,14.1
		C8.7,14.1,8.7,14.1,8.7,14.1C8.7,14.1,8.7,14.1,8.7,14.1C8.7,14.1,8.7,14.1,8.7,14.1z M6.4,9.9C6.4,9.9,6.4,9.9,6.4,9.9
		C6.4,9.9,6.4,9.9,6.4,9.9C6.4,9.9,6.4,9.9,6.4,9.9C6.4,9.9,6.4,9.9,6.4,9.9z M5.7,9.6C5.7,9.6,5.7,9.6,5.7,9.6
		C5.7,9.6,5.7,9.5,5.7,9.6C5.7,9.5,5.7,9.5,5.7,9.6C5.7,9.5,5.7,9.6,5.7,9.6z M4,8.6C4,8.6,4.1,8.6,4,8.6C4.1,8.6,4.1,8.5,4,8.6
		C4.1,8.5,4,8.5,4,8.6C4,8.5,4,8.6,4,8.6z M5.5,17C5.5,17,5.5,17,5.5,17C5.5,17,5.5,17,5.5,17C5.5,17,5.5,17,5.5,17
		C5.5,17,5.5,17,5.5,17z M2.9,7.6C2.9,7.6,2.9,7.5,2.9,7.6C2.9,7.5,2.9,7.5,2.9,7.6C2.9,7.5,2.9,7.6,2.9,7.6
		C2.9,7.6,2.9,7.6,2.9,7.6z M2.7,7.6C2.7,7.6,2.7,7.5,2.7,7.6C2.7,7.5,2.7,7.5,2.7,7.6C2.7,7.5,2.7,7.6,2.7,7.6
		C2.7,7.6,2.7,7.6,2.7,7.6z M2.8,7.5C2.8,7.5,2.8,7.5,2.8,7.5C2.8,7.5,2.8,7.5,2.8,7.5C2.8,7.5,2.8,7.5,2.8,7.5
		C2.8,7.5,2.8,7.5,2.8,7.5z M3.7,18C3.7,18,3.7,18,3.7,18C3.7,18,3.7,18,3.7,18C3.7,18,3.7,18,3.7,18C3.7,18,3.7,18,3.7,18z M3.6,18
		C3.6,18,3.6,18,3.6,18C3.6,18,3.6,18,3.6,18C3.6,18.1,3.6,18.1,3.6,18C3.6,18,3.6,18,3.6,18z"/>
	<path d="M5.9,16.3C5.9,16.3,5.9,16.3,5.9,16.3c-0.2,0.2-0.3,0.3-0.5,0.5c-0.2,0.1-0.3,0.3-0.5,0.4c-0.1,0.1-0.2,0.2-0.3,0.3
		c-0.1,0.1-0.3,0.2-0.5,0.2c-0.2,0-0.4,0.1-0.6,0.1c-0.4,0-0.7-0.1-1-0.4c-0.1-0.1-0.1-0.1-0.2-0.2c0,0.1,0,0.1,0,0.2c0,0,0,0-0.1,0
		c0,0,0,0,0,0.1c-0.1,0-0.1,0-0.1-0.1c0-0.1-0.1-0.1-0.2-0.2c0,0,0,0-0.1,0c0-0.1,0-0.1,0-0.2c0-0.1,0-0.1,0-0.2
		c-0.1,0,0-0.1-0.1-0.1c0-0.1-0.1-0.1-0.1-0.2c0-0.1,0-0.2,0-0.2c0-0.1,0.1-0.2,0.1-0.3c0-0.1,0.1-0.2,0.1-0.3
		c0.1-0.1,0.1-0.2,0.2-0.3c0-0.1,0.1-0.1,0.2-0.2C2.4,15.1,2.4,15,2.5,15c0.1-0.1,0.1-0.1,0.2-0.2c0.1-0.1,0.1-0.1,0.2-0.2
		c0.2-0.2,0.5-0.4,0.7-0.6c0,0,0,0,0.1,0c0,0,0,0,0,0c0,0,0.1,0,0.1-0.1c0,0,0-0.1,0-0.1c0.1,0,0.2-0.1,0.4-0.1
		c-0.1,0-0.1-0.1-0.1-0.1c0.4-0.3,0.8-0.5,1.1-0.9c0,0,0.1,0,0.1,0c0,0,0-0.1,0-0.1c0.1-0.1,0.2-0.2,0.2-0.3c0.1,0,0.2-0.1,0.3-0.1
		c0.1-0.1,0.1-0.1,0.2,0c0,0,0,0,0,0c0,0,0.1-0.1,0.1-0.1c0,0,0,0,0-0.1c0,0,0,0,0,0C6,12,6.2,11.9,6.3,11.7
		c0.1-0.1,0.2-0.2,0.3-0.2c0.1,0,0.1-0.1,0.2-0.1C6.8,11.2,7,11.1,7.2,11c0,0,0,0,0.1,0C7.1,10.9,7,10.8,7,10.7c0,0,0,0,0,0
		c0,0,0-0.1,0-0.1c0,0-0.1,0-0.1-0.1c0,0,0,0,0.1-0.1c-0.1,0-0.3-0.2-0.4-0.2c0,0,0,0,0,0.1c0,0,0,0-0.1,0.1c0,0,0,0,0-0.1
		c0,0,0,0-0.1,0c-0.1-0.1-0.1-0.2-0.2-0.3C6,10,5.9,9.8,5.7,9.8c0,0,0-0.1,0-0.1c0.1,0,0.1,0,0.2,0.1c0.1,0,0.2,0.1,0.3,0.1
		c0,0,0-0.1,0-0.1c0,0,0.1,0,0.1,0c0,0.1,0.1,0.1,0.2,0.2c0,0-0.1,0-0.1,0c0,0.1,0,0.1,0.2,0.2c0.1,0,0.2,0.1,0.3,0.1c0,0,0,0,0,0
		c0,0,0,0,0,0c0,0,0.1,0,0.1,0c-0.1-0.1-0.1-0.1-0.2-0.2c0,0-0.1,0-0.1,0c0,0,0,0,0,0C6.4,9.9,6.3,9.7,6.1,9.6c0,0-0.1,0-0.1,0
		c0,0,0-0.1,0-0.1C5.9,9.5,5.8,9.4,5.8,9.3c-0.1,0-0.2,0-0.2,0c0,0,0,0-0.1,0C5.4,9.3,5.4,9.1,5.2,9.2c0,0.1,0.1,0.1,0.1,0.2
		c0,0-0.1,0-0.1,0c0-0.1-0.1-0.2,0-0.2C5.2,9,5.2,9,5.3,9C5.2,9,5.2,8.9,5.1,8.9c0-0.1-0.1-0.1-0.2-0.2C4.6,8.5,4.3,8.2,4,8
		C3.7,7.9,3.5,7.7,3.3,7.5C3,7.3,2.8,7.2,2.5,7c0,0-0.1-0.1-0.2-0.1C2.1,6.7,1.9,6.4,1.7,6.1c0-0.1-0.1-0.3-0.1-0.4
		c0-0.1,0-0.1,0-0.2c0-0.1,0.1-0.2,0-0.2c0-0.1,0-0.2,0.1-0.2c0-0.1,0.1-0.1,0.1-0.2C1.9,4.7,2,4.6,2,4.5c-0.1,0-0.1,0-0.2,0
		c0,0,0,0,0,0c0,0,0,0,0,0c0,0,0-0.1,0.1-0.1C1.9,4.2,2,4.1,2,4.1c0.1-0.1,0.3-0.2,0.4-0.2c0,0,0,0,0.1,0c0,0,0-0.1,0-0.1
		c0.1,0,0.1-0.1,0.2-0.1c0.1,0,0.2,0,0.3,0c0.2,0,0.3,0,0.5,0.1C3.6,3.8,3.8,3.9,4,4c0.2,0.2,0.4,0.3,0.7,0.5
		c0.1,0.1,0.2,0.1,0.2,0.2C5,4.8,5.2,4.9,5.3,5c0,0,0,0,0,0c0,0,0,0.1,0,0.1c0.1,0,0.1,0,0.2,0c0,0.1,0.1,0.2,0.1,0.3
		c0,0,0.1,0,0.1,0C5.9,5.3,6,5.4,6.1,5.5c0.1,0.1,0.3,0.3,0.4,0.4C6.6,5.9,6.8,6,6.9,6.1c0,0,0,0.1,0,0.1c0,0,0,0,0,0c0,0,0,0,0,0
		c0,0,0,0,0,0c0,0,0,0,0,0c0.1,0,0.1,0,0.1,0.1c0.1,0,0.2,0.1,0.3,0.2c0.1,0.1,0.3,0.2,0.3,0.4c0,0,0,0,0,0c0,0.1,0.1,0.1,0.2,0
		C7.9,6.9,8,7.1,8.2,7.1c0.2,0.1,0.3,0.2,0.4,0.3C8.8,7.6,8.9,7.7,9,7.8C9.1,7.9,9.2,7.9,9.3,8c0-0.1,0-0.1,0-0.1
		C9.4,8,9.5,8,9.5,8.1c0,0,0,0.1,0,0.1c0,0,0,0.1,0.1,0.1c0.1,0,0.1,0.1,0.2,0.1c0,0,0.1,0,0.1,0c-0.1,0.1-0.1,0-0.2,0
		c0,0,0.1,0.1,0.1,0.1c0,0,0.1,0,0.1,0c0,0,0.1-0.1,0.2-0.1c0,0,0,0.1,0,0.1c0.1,0,0.1-0.1,0.2-0.1c0-0.1,0-0.1,0-0.2c0,0,0,0-0.1,0
		c0-0.1,0.1-0.1,0.1-0.2c0,0,0-0.1,0-0.1c0.1-0.1,0.2-0.2,0.3-0.3c0.2-0.1,0.4-0.3,0.6-0.5c0.1-0.2,0.3-0.3,0.5-0.4
		c0.1,0,0.1-0.1,0.2-0.2c0,0,0,0,0.1,0c0.1-0.1,0.1-0.2,0.2-0.3c0.1-0.1,0.2-0.2,0.3-0.3c0,0,0,0,0,0C12.7,6,12.8,5.9,13,5.8
		c0.1-0.1,0.2-0.2,0.2-0.2c0.1,0,0.2,0,0.3-0.2c0-0.1,0.1-0.1,0.2-0.2C13.7,5.1,13.8,5,13.9,5c0.1-0.2,0.2-0.3,0.3-0.5c0,0,0,0,0,0
		c0,0,0,0,0,0c0-0.1,0.1-0.2,0.2-0.2c0.1-0.1,0.2-0.1,0.3-0.2c0,0,0-0.1,0-0.1c0,0,0,0,0,0c0.1-0.1,0.2-0.3,0.3-0.4
		c0.1-0.1,0.1-0.1,0.2-0.2c0,0,0,0.1,0.1,0.1c0-0.1,0-0.1,0-0.1c0,0,0,0,0,0c0-0.1,0-0.1,0-0.2c0,0,0,0,0.1-0.1c0,0,0.1,0,0.1,0
		c0,0,0,0,0,0c0.2,0,0.3,0,0.5,0.1c0,0,0.1-0.1,0.1-0.1c0.2,0,0.4,0.1,0.5,0.1c0,0,0-0.1,0-0.1c0,0,0,0,0,0c0.1,0,0.2,0.1,0.4,0.1
		c0.1,0,0.2,0.1,0.2,0.2c0.1,0.1,0.1,0.2,0.2,0.2c0,0,0,0,0.1,0C17.8,3.8,17.9,4,18,4.1c0,0.1,0.1,0.1,0.1,0.2
		c0.1,0.2,0.2,0.4,0.2,0.6c0,0,0,0-0.1,0c0,0.1,0,0.1,0,0.1c0,0.1,0.1,0.1,0,0.2c0,0,0,0.1,0,0.1c0.1,0,0.1,0.1,0.1,0.1
		c0,0.1,0,0.2,0,0.3c0,0,0,0-0.1,0c0,0,0,0,0,0.1c0,0,0,0,0,0c0,0,0,0,0,0c0,0.1,0,0.2-0.1,0.3c-0.1,0.1-0.2,0.2-0.3,0.3
		c0,0,0,0-0.1,0c0,0.1-0.1,0.1-0.1,0.1c-0.1,0-0.1,0.1-0.1,0.1c-0.1,0.1-0.1,0.1-0.2,0.2c-0.1,0-0.1,0.1-0.1,0.1
		c0,0-0.1,0.1-0.1,0.1c-0.2,0.2-0.4,0.3-0.5,0.5c-0.1,0.1-0.2,0.1-0.3,0.2c-0.1,0.1-0.1,0.1-0.2,0.2c-0.1,0-0.1,0.1-0.1,0.1
		C15.9,8,15.8,8,15.7,8.1c0,0,0,0-0.1-0.1c0,0-0.1,0.1-0.1,0.1c0,0.1,0,0.1-0.1,0.2c0,0-0.1,0-0.1,0c-0.1,0.1-0.2,0.2-0.3,0.3
		C15,8.8,14.8,9,14.6,9.1c0,0,0,0,0,0c0,0,0,0.1-0.1,0.1c0,0,0,0,0.1,0c0,0,0,0.1,0,0.1c0,0-0.1,0.1-0.2,0c0,0,0.1,0,0.1,0
		c0-0.1-0.1,0-0.1,0c-0.1,0.1-0.3,0.3-0.5,0.4c-0.1,0.1-0.1,0.2-0.2,0.2c-0.1,0.1-0.2,0.2-0.4,0.3c-0.2,0.1-0.3,0.1-0.4,0.3
		c0,0,0,0,0,0c0.1,0.1,0.2,0.1,0.2,0.2c0.2,0.2,0.4,0.3,0.6,0.5c0,0,0.1,0,0.1,0.1c0.1,0.1,0.2,0.3,0.4,0.3c0.1,0,0.1,0.1,0.1,0.1
		c0.2,0,0.3,0.1,0.4,0.2c0,0,0.1,0.1,0.1,0.1c0,0,0,0.1,0.1,0.1c0.1,0,0.3,0.1,0.4,0.2c0.1,0,0.1,0.1,0.2,0.1c0.1,0,0.1,0.1,0.2,0.1
		c0,0,0,0,0,0c0.1,0.1,0.2,0.1,0.3,0.2c0.1,0,0.2,0.1,0.2,0.1c0.1,0,0.1,0.1,0.1,0.2c0.2,0.1,0.4,0.1,0.5,0.2c0.2,0,0.3,0.2,0.4,0.3
		c0,0,0.1,0.1,0.1,0.1c0,0,0.1,0,0.1,0c0.1,0.1,0.3,0.2,0.5,0.2c0.1,0,0.2,0.1,0.3,0.2c0,0-0.1,0.1-0.1,0.1c0,0,0,0,0,0
		c0.1,0,0.1,0,0.2,0c0,0,0,0.1,0,0.1c0,0,0,0,0,0c0,0,0,0,0,0c0,0.2,0,0.3,0,0.5c0,0,0,0,0.1,0c0,0.1,0.1,0.3,0,0.4c0,0,0,0.1,0,0.2
		c0,0,0,0,0.1,0.1c0,0,0,0,0.1,0c0,0.2,0,0.3-0.1,0.5c-0.1,0.1-0.1,0.3-0.2,0.4c0,0,0,0.1,0,0.1c-0.1,0.1-0.1,0.2-0.2,0.3
		c-0.1,0.1-0.2,0.2-0.3,0.3c-0.1,0.1-0.3,0.2-0.5,0.2c0,0,0,0-0.1-0.1c0,0-0.1,0.1-0.1,0.1c-0.1,0-0.2,0-0.2,0
		c0,0.1-0.1,0.2-0.2,0.2c-0.1,0-0.2,0-0.3-0.1c0,0,0.1,0,0.1,0c-0.1,0-0.2,0-0.3,0c-0.1-0.1-0.3-0.1-0.4-0.2c0,0,0,0,0-0.1
		c-0.1,0-0.2-0.1-0.3-0.2c0,0,0,0-0.1,0c-0.1-0.1-0.1-0.1-0.2-0.2c-0.1-0.1-0.2-0.2-0.3-0.2c-0.2-0.1-0.4-0.3-0.6-0.4
		c-0.1,0-0.1-0.1-0.2-0.2c-0.1-0.1-0.1-0.1-0.1-0.2c-0.1,0-0.1-0.1-0.2-0.1c0,0,0,0,0,0c-0.2,0-0.3-0.1-0.5-0.2c0,0,0.1,0,0.1,0
		c0,0,0-0.1,0-0.1c-0.1-0.1-0.2-0.1-0.3-0.1c0,0,0-0.1,0-0.1c-0.1-0.1-0.1-0.1-0.2-0.2c-0.2,0-0.3-0.1-0.4-0.2
		c-0.1-0.1-0.2-0.2-0.4-0.3c0,0,0,0.1,0,0.1c0,0-0.1,0-0.1,0c0,0,0,0.1,0,0.1c0-0.1-0.1-0.1-0.1-0.2c0.1,0.1,0.1,0.1,0.2,0.1
		c0,0,0,0,0-0.1c0,0,0,0,0,0c-0.1-0.1-0.2-0.2-0.4-0.3c0,0,0,0-0.1,0c-0.1-0.1-0.2-0.2-0.3-0.2c-0.1-0.1-0.2-0.1-0.4-0.2
		c0,0,0,0,0,0c-0.1-0.2-0.3-0.3-0.4-0.4c0,0-0.1-0.1-0.2-0.1c0,0-0.1,0.1-0.1,0c-0.1-0.1-0.2-0.1-0.3-0.2c0,0-0.1,0-0.1,0
		c-0.1,0.1-0.2,0.2-0.2,0.3c0,0-0.1,0.1-0.1,0.1c-0.1,0-0.2,0.1-0.2,0.2c0,0,0,0,0-0.1c0,0,0,0-0.1,0c0,0-0.1,0-0.1,0
		c0,0,0,0.1-0.1,0.1c0,0,0,0-0.1,0C9.1,13.8,9,14,9,14.1c0,0,0,0,0,0c0,0,0.1,0,0.1,0c0,0,0,0.1,0,0.1c0,0-0.1,0-0.1,0.1
		c0,0,0,0,0,0c0,0,0,0,0,0c-0.1,0-0.2,0.1-0.3,0.1c-0.1,0.1-0.2,0.2-0.3,0.3c-0.1,0.1-0.1,0.1-0.2,0.1c0.1-0.1,0.1-0.1,0.2-0.2
		c0-0.1,0.1-0.1,0.2-0.2c-0.1,0-0.1,0-0.1,0c0,0,0-0.1,0-0.1c0,0,0.1-0.1,0.2-0.1c0,0,0,0,0,0c0.2,0,0.2-0.1,0.4-0.4c0,0,0,0,0,0
		c0,0,0-0.1,0.1-0.1c0,0,0,0,0,0c-0.1,0.1-0.2,0.1-0.2,0.2c0,0,0,0,0,0c0,0,0,0,0,0c0,0,0,0-0.1,0c-0.1,0.1-0.2,0.2-0.3,0.3
		c0,0-0.1,0.1-0.1,0.1c-0.1,0-0.2,0.1-0.3,0.2c0,0.1-0.1,0.2-0.1,0.3c0,0,0,0-0.1,0c0,0-0.1,0.1-0.1,0.1c0.1,0,0.1,0,0.2-0.1
		c0,0,0,0.1,0,0.1c0,0,0,0.1,0,0.1c-0.1,0.1-0.1,0.1-0.2,0.1c0.1-0.1,0.1-0.1,0.2-0.2c-0.1-0.1-0.3,0-0.3-0.2c0,0-0.1,0.1-0.1,0.1
		c0,0.1-0.1,0.1-0.2,0.2c0,0-0.1,0-0.1,0c-0.1,0.1-0.3,0.3-0.4,0.4c-0.1,0.1-0.1,0.1-0.2,0.2C6.4,15.9,6.4,16,6.3,16c0,0,0,0,0,0
		c-0.1,0.1-0.1,0.1-0.2,0.2C6,16.2,5.9,16.3,5.9,16.3z M7.3,10.7C7.3,10.7,7.3,10.7,7.3,10.7C7.3,10.7,7.3,10.7,7.3,10.7
		C7.3,10.7,7.3,10.7,7.3,10.7C7.3,10.7,7.3,10.7,7.3,10.7C7.3,10.7,7.3,10.7,7.3,10.7C7.3,10.7,7.3,10.7,7.3,10.7c0.1,0,0.1,0,0.1,0
		c0,0,0,0,0-0.1C7.4,10.6,7.3,10.6,7.3,10.7C7.3,10.7,7.3,10.7,7.3,10.7z M10.4,12.9C10.4,12.9,10.4,12.9,10.4,12.9
		C10.4,12.9,10.4,12.9,10.4,12.9c0,0.1,0.1,0.2,0.2,0.3c0,0,0.1-0.1,0.1-0.1C10.6,13,10.6,12.9,10.4,12.9
		C10.4,12.9,10.4,12.9,10.4,12.9C10.4,12.9,10.4,12.9,10.4,12.9z M18,5c0,0.1,0,0.1,0,0.2c0,0,0,0,0.1,0C18.1,5.1,18.1,5.1,18,5
		C18.1,5,18.1,5,18,5c0,0,0,0,0,0.2c0,0,0,0,0,0c0,0,0,0,0,0c0,0,0,0,0,0C18.1,5.2,18.1,5.2,18,5z M13.5,10c0,0,0.1-0.1,0.1-0.1
		c0.2-0.1,0.2-0.2,0.2-0.4c-0.1,0.1-0.1,0.1-0.2,0.2C13.5,9.7,13.5,9.8,13.5,10C13.5,9.9,13.5,9.9,13.5,10C13.5,9.9,13.5,10,13.5,10
		C13.4,10,13.5,10,13.5,10C13.5,10,13.5,10,13.5,10z M9.8,13C9.8,13,9.8,13,9.8,13C9.8,13,9.8,13,9.8,13C9.7,13,9.7,13,9.8,13
		C9.7,13,9.8,13,9.8,13c-0.1,0-0.2,0.1-0.3,0.2c0,0.1,0.1,0.1,0.1,0.1c0.1,0,0.1,0,0.1,0c0.1-0.1,0.2-0.1,0.2-0.3
		C9.9,13.1,9.9,13,9.8,13z M11.7,13.8c-0.1,0-0.2,0-0.3,0c0.1,0.1,0.1,0.1,0.2,0.1c0,0.1,0.1,0,0.1,0.1c0.1,0,0.2,0.1,0.4,0
		C11.9,13.9,11.8,13.8,11.7,13.8z M17.3,17.2c-0.1,0-0.1,0-0.1,0c0,0-0.1,0-0.1,0C17.1,17.3,17.2,17.3,17.3,17.2z M13.9,15.4
		c-0.1,0-0.1-0.1-0.1-0.1c0,0,0,0.1,0,0.1C13.8,15.5,13.9,15.5,13.9,15.4z M15.6,7.9C15.6,7.9,15.5,7.9,15.6,7.9c0,0.1,0,0.1,0,0.2
		c0,0,0,0,0,0C15.6,8,15.6,7.9,15.6,7.9z M7.3,10.8C7.3,10.8,7.3,10.8,7.3,10.8C7.3,10.8,7.3,10.8,7.3,10.8
		C7.3,10.8,7.3,10.8,7.3,10.8C7.3,10.8,7.3,10.8,7.3,10.8z M5.4,9.1C5.4,9.1,5.4,9.1,5.4,9.1C5.4,9.1,5.4,9.1,5.4,9.1
		C5.4,9.1,5.4,9.1,5.4,9.1C5.4,9.1,5.4,9.1,5.4,9.1z"/>
	<path d="M7.2,15.5C7.2,15.5,7.2,15.5,7.2,15.5c0-0.1,0.1-0.2,0.1-0.2c0,0.1,0,0.1,0,0.2c0.1,0,0.1-0.1,0.1-0.1c0,0,0,0.1-0.1,0.1
		c0,0-0.1,0.1-0.1,0.1c0,0,0,0,0,0C7.2,15.6,7.3,15.5,7.2,15.5z"/>
	<path d="M4.7,9C4.7,9,4.7,9,4.7,9C4.6,9,4.6,9,4.5,8.9c0,0,0.1,0,0.1-0.1c0,0,0.1,0,0.1,0c0,0,0.1,0.1,0.1,0.1
		C4.8,8.9,4.8,8.9,4.7,9C4.7,9,4.7,9,4.7,9z"/>
	<path d="M3.5,7.8C3.5,7.8,3.5,7.8,3.5,7.8c0.1,0,0.1,0.1,0.2,0.1c0,0,0,0.1,0,0.1C3.6,7.9,3.5,7.9,3.5,7.8z"/>
	<path d="M4.2,8.9c0,0-0.1,0-0.2-0.1c0,0,0-0.1,0-0.1C4.1,8.7,4.2,8.8,4.2,8.9z"/>
	<path d="M5.2,9.3C5.2,9.4,5.1,9.4,5.2,9.3c-0.1,0-0.1,0-0.2,0c0,0,0-0.1,0-0.1C5,9.2,5.1,9.3,5.2,9.3z"/>
	<path d="M4.4,17.8c0.1-0.1,0.2-0.1,0.3-0.2C4.6,17.8,4.5,17.8,4.4,17.8z"/>
	<path d="M4.3,17.9C4.2,18,4.1,18,4.1,18c0,0,0,0,0,0c0,0,0,0,0-0.1C4.2,17.9,4.2,17.9,4.3,17.9C4.3,17.9,4.3,17.9,4.3,17.9z"/>
	<path d="M7.1,15.9c0,0.1-0.1,0.1-0.1,0.2c0,0-0.1,0-0.1,0C7,16,7.1,16,7.1,15.9z"/>
	<path d="M1.7,6.5c0-0.1-0.1-0.1-0.1-0.2c0,0,0.1,0,0.1,0C1.7,6.4,1.7,6.4,1.7,6.5C1.7,6.5,1.7,6.5,1.7,6.5z"/>
	<path d="M6.7,15.9C6.7,15.9,6.7,15.8,6.7,15.9c0-0.1,0.1-0.2,0.2-0.2C6.8,15.8,6.8,15.8,6.7,15.9C6.7,15.8,6.7,15.9,6.7,15.9
		C6.7,15.9,6.7,15.9,6.7,15.9z"/>
	<path d="M9.3,13.9C9.3,13.9,9.3,13.9,9.3,13.9c-0.1-0.1-0.1-0.1,0.1-0.1C9.4,13.8,9.4,13.9,9.3,13.9z"/>
	<path d="M7.2,15.7C7.1,15.8,7,15.8,7,15.9C7,15.8,7,15.8,7.2,15.7z"/>
	<path d="M6,16.4c0-0.1,0-0.1,0.2-0.1C6.1,16.4,6.1,16.4,6,16.4z"/>
	<path d="M5.2,17.4C5.2,17.4,5.2,17.4,5.2,17.4c0-0.1,0-0.1,0.1-0.2C5.3,17.3,5.4,17.3,5.2,17.4C5.3,17.4,5.3,17.4,5.2,17.4z"/>
	<path d="M2.7,7.7c-0.1,0-0.1,0-0.2-0.1c0,0,0.1,0,0.1,0C2.6,7.6,2.7,7.6,2.7,7.7z"/>
	<path d="M5.9,9.8c-0.1,0-0.1-0.1-0.2-0.1C5.9,9.6,5.9,9.6,5.9,9.8z"/>
	<path d="M8.4,14.4c0,0.1-0.1,0.1-0.1,0.2c0,0,0,0-0.1,0c0,0,0,0,0,0C8.2,14.5,8.3,14.4,8.4,14.4z"/>
	<path d="M1.8,6.6C1.9,6.7,2,6.8,2,6.9C1.9,6.8,1.8,6.8,1.8,6.6z"/>
	<path d="M1.7,6.5c0.1,0,0.1,0.1,0.1,0.2C1.8,6.6,1.7,6.6,1.7,6.5z"/>
	<path d="M4.3,8.6c0,0,0.1,0.1,0.1,0.1c0,0-0.1,0-0.1,0C4.3,8.7,4.3,8.7,4.3,8.6z"/>
	<path d="M4.4,8.5c-0.1,0-0.1,0-0.2-0.1C4.3,8.4,4.3,8.4,4.4,8.5z"/>
	<path d="M5.6,17.2c0,0,0.1,0,0.1,0c-0.1,0-0.1,0.1-0.2,0.1C5.5,17.3,5.5,17.2,5.6,17.2z"/>
	<path d="M3.4,7.8C3.4,7.8,3.4,7.8,3.4,7.8c0,0.1-0.1,0.1-0.1,0.1C3.3,7.8,3.3,7.8,3.4,7.8C3.3,7.8,3.4,7.8,3.4,7.8z"/>
	<path d="M6.2,16.6c0,0,0,0.1,0,0.1c0,0,0,0-0.1,0.1C6.1,16.7,6.1,16.6,6.2,16.6z"/>
	<path d="M5.9,16.5C5.9,16.5,5.9,16.5,5.9,16.5C6,16.6,6,16.6,6,16.6C5.8,16.6,5.9,16.6,5.9,16.5z"/>
	<path d="M5.9,16.3c0,0,0.1,0,0.1,0c0,0,0,0.1-0.1,0.1C5.9,16.4,5.9,16.4,5.9,16.3z"/>
	<path d="M6.7,10.5c0,0,0.1,0,0.2,0.1C6.8,10.6,6.8,10.6,6.7,10.5C6.7,10.6,6.7,10.6,6.7,10.5z"/>
	<path d="M2.5,7.4c0,0-0.1-0.1-0.1-0.1C2.4,7.3,2.5,7.3,2.5,7.4C2.5,7.4,2.5,7.4,2.5,7.4z"/>
	<path d="M3.2,8c0.1,0,0.1,0,0.1,0.1C3.3,8.1,3.3,8.1,3.2,8z"/>
	<path d="M2.1,6.8C2.1,6.8,2,6.8,2.1,6.8C2.1,6.7,2.1,6.7,2.1,6.8z"/>
	<path d="M1.6,4.6C1.6,4.6,1.6,4.5,1.6,4.6C1.6,4.5,1.6,4.5,1.6,4.6C1.6,4.6,1.6,4.6,1.6,4.6z"/>
	<path d="M3.5,8.1C3.5,8.1,3.5,8.1,3.5,8.1c0,0,0.1,0,0.1,0C3.6,8.1,3.5,8.1,3.5,8.1z"/>
	<path d="M6.6,10.1c-0.1,0-0.1,0-0.1-0.1C6.5,10,6.6,10,6.6,10.1C6.6,10,6.6,10,6.6,10.1C6.6,10,6.6,10,6.6,10.1z"/>
	<path d="M6.3,16.4C6.3,16.4,6.2,16.4,6.3,16.4c-0.1,0-0.1,0-0.1,0C6.2,16.4,6.2,16.4,6.3,16.4C6.2,16.4,6.3,16.4,6.3,16.4
		C6.3,16.4,6.3,16.4,6.3,16.4z"/>
	<path d="M2.3,17.6C2.3,17.6,2.3,17.5,2.3,17.6c0.1-0.1,0.1,0,0.1,0C2.4,17.6,2.3,17.6,2.3,17.6z"/>
	<path d="M8.7,14.5C8.7,14.5,8.6,14.5,8.7,14.5C8.6,14.5,8.6,14.5,8.7,14.5z"/>
	<path d="M7.9,15.1C7.9,15.1,7.9,15.1,7.9,15.1C7.9,15.2,7.9,15.2,7.9,15.1C7.9,15.1,7.9,15.1,7.9,15.1C7.9,15.1,7.9,15.1,7.9,15.1z
		"/>
	<path d="M2.4,17.7C2.4,17.7,2.4,17.7,2.4,17.7C2.4,17.7,2.4,17.8,2.4,17.7C2.4,17.8,2.4,17.8,2.4,17.7C2.4,17.8,2.4,17.7,2.4,17.7z
		"/>
	<ellipse cx="6.5" cy="16.3" rx="0.1" ry="0"/>
	<path d="M5.4,9.7C5.4,9.7,5.4,9.6,5.4,9.7C5.5,9.6,5.5,9.7,5.4,9.7C5.5,9.7,5.5,9.7,5.4,9.7z"/>
	<path d="M5.2,9.5C5.2,9.5,5.2,9.5,5.2,9.5c-0.1,0-0.1,0-0.1,0C5.2,9.4,5.2,9.4,5.2,9.5C5.2,9.4,5.2,9.4,5.2,9.5z"/>
	<path d="M1.4,4.6C1.4,4.6,1.4,4.6,1.4,4.6C1.5,4.6,1.5,4.6,1.4,4.6C1.5,4.6,1.5,4.6,1.4,4.6C1.5,4.6,1.5,4.6,1.4,4.6z"/>
	<path d="M4.6,17.6C4.6,17.6,4.6,17.6,4.6,17.6C4.6,17.6,4.6,17.6,4.6,17.6C4.6,17.6,4.6,17.6,4.6,17.6C4.6,17.6,4.6,17.6,4.6,17.6z
		"/>
	<ellipse cx="6.3" cy="16.3" rx="0" ry="0.1"/>
	<path d="M4.7,9C4.7,9,4.8,9,4.7,9C4.7,9,4.7,9.1,4.7,9z"/>
	<path d="M4.4,17.9C4.4,17.8,4.4,17.8,4.4,17.9C4.4,17.9,4.4,17.9,4.4,17.9z"/>
	<path d="M4.6,17.6C4.6,17.6,4.7,17.6,4.6,17.6C4.7,17.6,4.7,17.6,4.6,17.6C4.7,17.6,4.6,17.6,4.6,17.6C4.6,17.6,4.6,17.6,4.6,17.6z
		"/>
	<path d="M4.2,8.6C4.2,8.6,4.2,8.6,4.2,8.6C4.2,8.6,4.2,8.6,4.2,8.6C4.2,8.6,4.2,8.6,4.2,8.6z"/>
	<path d="M3.7,8.3C3.7,8.3,3.7,8.4,3.7,8.3C3.7,8.4,3.7,8.4,3.7,8.3C3.7,8.4,3.7,8.3,3.7,8.3C3.7,8.3,3.7,8.3,3.7,8.3z"/>
	<path d="M8.2,14.9C8.2,14.9,8.2,14.9,8.2,14.9C8.2,14.9,8.2,14.9,8.2,14.9C8.2,14.9,8.1,14.9,8.2,14.9C8.2,14.9,8.2,14.9,8.2,14.9z
		"/>
	<path d="M3.7,8.2C3.7,8.2,3.7,8.2,3.7,8.2C3.7,8.2,3.7,8.2,3.7,8.2C3.7,8.2,3.7,8.2,3.7,8.2C3.7,8.2,3.7,8.2,3.7,8.2z"/>
	<ellipse cx="3.4" cy="8.1" rx="0.1" ry="0"/>
	<path d="M8.8,13.8C8.8,13.8,8.8,13.8,8.8,13.8C8.8,13.8,8.8,13.8,8.8,13.8C8.8,13.9,8.8,13.9,8.8,13.8C8.8,13.9,8.8,13.8,8.8,13.8z
		"/>
	<path d="M2.1,17.4C2.1,17.4,2.1,17.4,2.1,17.4C2.1,17.5,2.1,17.5,2.1,17.4C2.1,17.4,2.1,17.4,2.1,17.4C2.1,17.4,2.1,17.4,2.1,17.4z
		"/>
	<path d="M5.3,17.4C5.3,17.5,5.3,17.5,5.3,17.4C5.3,17.5,5.3,17.5,5.3,17.4C5.3,17.5,5.3,17.5,5.3,17.4z"/>
	<path d="M4.4,17.9C4.4,17.9,4.3,17.9,4.4,17.9C4.3,17.8,4.3,17.9,4.4,17.9z"/>
	<path d="M2.4,7.4C2.3,7.4,2.3,7.4,2.4,7.4C2.3,7.4,2.3,7.4,2.4,7.4C2.3,7.4,2.4,7.4,2.4,7.4z"/>
	<path d="M2.2,7.3C2.2,7.4,2.3,7.4,2.2,7.3C2.3,7.4,2.3,7.4,2.2,7.3C2.2,7.4,2.2,7.4,2.2,7.3z"/>
	<path d="M5.5,17.1C5.5,17.1,5.5,17.2,5.5,17.1C5.5,17.2,5.5,17.2,5.5,17.1C5.5,17.1,5.5,17.1,5.5,17.1z"/>
	<path d="M9.5,13.7C9.5,13.7,9.5,13.7,9.5,13.7C9.5,13.7,9.5,13.7,9.5,13.7C9.5,13.7,9.5,13.7,9.5,13.7C9.5,13.7,9.5,13.7,9.5,13.7z
		"/>
	<path d="M7,10.7C6.9,10.7,6.9,10.7,7,10.7C6.9,10.7,6.9,10.7,7,10.7C6.9,10.7,7,10.7,7,10.7C7,10.7,7,10.7,7,10.7z"/>
	<path d="M17.5,13.8C17.5,13.8,17.5,13.8,17.5,13.8C17.5,13.8,17.5,13.8,17.5,13.8C17.5,13.8,17.5,13.8,17.5,13.8
		C17.5,13.8,17.5,13.8,17.5,13.8z"/>
	<ellipse cx="6.5" cy="10.4" rx="0" ry="0"/>
	<path d="M8.8,13.9C8.8,13.9,8.7,13.9,8.8,13.9C8.7,13.9,8.7,13.9,8.8,13.9C8.7,13.9,8.8,13.9,8.8,13.9z"/>
	<path d="M8.7,13.9C8.7,13.9,8.7,13.9,8.7,13.9C8.7,13.9,8.7,13.9,8.7,13.9C8.7,13.9,8.7,13.9,8.7,13.9z"/>
	<path d="M8.6,14C8.6,14,8.6,14,8.6,14C8.6,14,8.7,14,8.6,14C8.6,14,8.6,14,8.6,14C8.6,14,8.6,14,8.6,14z"/>
	<ellipse cx="9.2" cy="14" rx="0" ry="0"/>
	<path d="M8.6,14C8.6,14,8.6,14,8.6,14C8.6,14,8.6,14,8.6,14C8.6,14,8.6,14,8.6,14C8.6,14,8.6,14,8.6,14z"/>
	<ellipse cx="8.7" cy="14.1" rx="0" ry="0"/>
	<path d="M8.6,14.2C8.6,14.1,8.6,14.1,8.6,14.2C8.6,14.1,8.6,14.1,8.6,14.2C8.6,14.1,8.6,14.2,8.6,14.2C8.6,14.2,8.6,14.2,8.6,14.2z
		"/>
	<path d="M6.6,10C6.6,10.1,6.6,10.1,6.6,10C6.7,10.1,6.6,10.1,6.6,10C6.6,10.1,6.6,10.1,6.6,10C6.6,10.1,6.6,10,6.6,10z"/>
	<path d="M6,10C6,10.1,6,10.1,6,10C6,10.1,6,10.1,6,10C6,10.1,6,10.1,6,10C6,10.1,6,10,6,10z"/>
	<path d="M18.5,14.5C18.5,14.5,18.5,14.5,18.5,14.5C18.5,14.5,18.5,14.5,18.5,14.5C18.5,14.5,18.5,14.5,18.5,14.5z"/>
	<path d="M6,10.1C6,10,6,10,6,10.1C6,10,6,10,6,10.1C6,10,6,10,6,10.1C6,10,6,10.1,6,10.1z"/>
	<path d="M7.6,15.3C7.6,15.3,7.6,15.3,7.6,15.3C7.6,15.3,7.6,15.3,7.6,15.3C7.6,15.3,7.6,15.3,7.6,15.3C7.6,15.3,7.6,15.3,7.6,15.3z
		"/>
	<path d="M7.5,15.4C7.5,15.4,7.5,15.4,7.5,15.4C7.5,15.4,7.5,15.4,7.5,15.4C7.5,15.4,7.5,15.4,7.5,15.4C7.5,15.4,7.5,15.4,7.5,15.4z
		"/>
	<ellipse cx="6.4" cy="9.9" rx="0" ry="0"/>
	<path d="M7.2,15.5C7.2,15.5,7.2,15.6,7.2,15.5C7.2,15.6,7.1,15.6,7.2,15.5C7.2,15.5,7.2,15.5,7.2,15.5C7.2,15.5,7.2,15.5,7.2,15.5z
		"/>
	<path d="M7.4,15.5C7.4,15.5,7.4,15.5,7.4,15.5C7.4,15.6,7.4,15.6,7.4,15.5C7.4,15.6,7.4,15.5,7.4,15.5C7.4,15.5,7.4,15.5,7.4,15.5z
		"/>
	<path d="M5.7,9.7C5.6,9.7,5.6,9.7,5.7,9.7C5.6,9.7,5.6,9.7,5.7,9.7C5.6,9.7,5.7,9.7,5.7,9.7C5.7,9.7,5.7,9.7,5.7,9.7z"/>
	<path d="M7.2,15.6C7.2,15.7,7.2,15.7,7.2,15.6C7.2,15.7,7.2,15.7,7.2,15.6z"/>
	<path d="M7.2,15.7C7.2,15.7,7.2,15.7,7.2,15.7C7.2,15.7,7.2,15.7,7.2,15.7z"/>
	<ellipse cx="5.7" cy="9.6" rx="0" ry="0"/>
	<path d="M5.3,9.3C5.3,9.4,5.4,9.4,5.3,9.3C5.4,9.4,5.4,9.4,5.3,9.3C5.3,9.4,5.3,9.4,5.3,9.3C5.3,9.3,5.3,9.3,5.3,9.3z"/>
	<path d="M6.9,15.9C6.9,15.9,6.9,15.9,6.9,15.9C6.9,15.9,6.9,15.9,6.9,15.9C6.9,15.9,6.9,15.9,6.9,15.9C6.9,15.9,6.9,15.9,6.9,15.9z
		"/>
	<path d="M6.9,15.9C6.9,15.9,6.9,15.9,6.9,15.9C6.9,15.9,6.9,15.9,6.9,15.9C6.9,15.9,6.9,15.9,6.9,15.9C6.9,15.9,6.9,15.9,6.9,15.9z
		"/>
	<path d="M7.1,15.9C7.1,15.9,7.2,15.9,7.1,15.9C7.2,15.9,7.2,15.9,7.1,15.9C7.2,15.9,7.2,15.9,7.1,15.9C7.1,15.9,7.1,15.9,7.1,15.9z
		"/>
	<path d="M4.9,9.2C4.9,9.2,4.9,9.2,4.9,9.2C4.9,9.2,4.9,9.2,4.9,9.2z"/>
	<path d="M6.8,16C6.8,16,6.8,16,6.8,16C6.8,16,6.8,16,6.8,16C6.8,16,6.8,16,6.8,16C6.8,16,6.8,16,6.8,16z"/>
	<path d="M6.8,16C6.8,16,6.8,16,6.8,16C6.8,16,6.8,16,6.8,16C6.8,16,6.8,16,6.8,16C6.8,16,6.8,16,6.8,16z"/>
	<path d="M4.9,9.2C4.9,9.2,4.9,9.1,4.9,9.2C4.9,9.1,4.9,9.1,4.9,9.2C4.9,9.1,4.9,9.1,4.9,9.2C4.9,9.2,4.9,9.2,4.9,9.2z"/>
	<path d="M4.8,9.1C4.8,9.1,4.8,9.1,4.8,9.1C4.8,9.1,4.8,9.1,4.8,9.1C4.8,9.1,4.8,9.1,4.8,9.1C4.8,9.1,4.8,9.1,4.8,9.1z"/>
	<path d="M4.8,9.1C4.8,9.1,4.8,9.1,4.8,9.1C4.8,9.1,4.8,9.1,4.8,9.1z"/>
	<path d="M4.5,8.9C4.5,8.9,4.5,8.9,4.5,8.9C4.5,8.9,4.5,8.9,4.5,8.9C4.5,8.9,4.5,8.9,4.5,8.9C4.6,8.9,4.5,8.9,4.5,8.9z"/>
	<path d="M4.4,8.8C4.4,8.8,4.4,8.8,4.4,8.8C4.4,8.8,4.4,8.8,4.4,8.8C4.4,8.8,4.4,8.8,4.4,8.8C4.4,8.8,4.4,8.8,4.4,8.8z"/>
	<path d="M6.2,16.6C6.2,16.6,6.2,16.5,6.2,16.6C6.2,16.5,6.2,16.5,6.2,16.6C6.2,16.6,6.2,16.6,6.2,16.6C6.2,16.6,6.2,16.6,6.2,16.6z
		"/>
	<ellipse cx="4" cy="8.6" rx="0" ry="0"/>
	<ellipse cx="5.5" cy="17" rx="0" ry="0"/>
	<path d="M5.5,17.1C5.6,17.1,5.6,17.1,5.5,17.1C5.6,17.1,5.6,17.1,5.5,17.1C5.6,17.1,5.6,17.1,5.5,17.1C5.6,17.1,5.5,17.1,5.5,17.1z
		"/>
	<path d="M4.4,8.5C4.4,8.5,4.4,8.5,4.4,8.5C4.4,8.5,4.4,8.5,4.4,8.5C4.4,8.5,4.4,8.5,4.4,8.5C4.4,8.5,4.4,8.5,4.4,8.5z"/>
	<path d="M10.4,8.3C10.4,8.3,10.4,8.3,10.4,8.3C10.3,8.3,10.3,8.3,10.4,8.3C10.3,8.3,10.4,8.3,10.4,8.3C10.4,8.3,10.4,8.3,10.4,8.3z
		"/>
	<path d="M3.7,8.3C3.7,8.3,3.7,8.3,3.7,8.3C3.7,8.3,3.7,8.3,3.7,8.3C3.7,8.3,3.7,8.3,3.7,8.3C3.7,8.3,3.7,8.3,3.7,8.3z"/>
	<path d="M9.3,7.9C9.3,7.9,9.3,7.9,9.3,7.9C9.3,7.9,9.3,7.9,9.3,7.9C9.3,7.9,9.3,7.9,9.3,7.9C9.3,7.9,9.3,7.9,9.3,7.9z"/>
	<ellipse cx="2.9" cy="7.6" rx="0" ry="0"/>
	<path d="M2.1,17.4C2.1,17.4,2,17.4,2.1,17.4C2,17.4,2,17.4,2.1,17.4C2.1,17.4,2.1,17.4,2.1,17.4C2.1,17.4,2.1,17.4,2.1,17.4z"/>
	<ellipse cx="2.7" cy="7.6" rx="0" ry="0"/>
	<path d="M2.3,17.4C2.3,17.4,2.3,17.4,2.3,17.4C2.3,17.4,2.3,17.4,2.3,17.4C2.3,17.4,2.3,17.4,2.3,17.4C2.3,17.4,2.3,17.4,2.3,17.4z
		"/>
	<path d="M17.4,17.4C17.4,17.4,17.4,17.4,17.4,17.4C17.4,17.4,17.4,17.4,17.4,17.4C17.4,17.4,17.4,17.4,17.4,17.4
		C17.4,17.4,17.4,17.4,17.4,17.4z"/>
	<ellipse cx="2.8" cy="7.5" rx="0" ry="0"/>
	<path d="M2.5,7.4C2.5,7.4,2.5,7.4,2.5,7.4C2.5,7.4,2.5,7.5,2.5,7.4C2.5,7.4,2.5,7.4,2.5,7.4C2.5,7.4,2.5,7.4,2.5,7.4z"/>
	<path d="M5.3,17.5C5.2,17.5,5.2,17.6,5.3,17.5C5.2,17.6,5.2,17.6,5.3,17.5C5.2,17.5,5.2,17.5,5.3,17.5C5.3,17.5,5.3,17.5,5.3,17.5z
		"/>
	<path d="M1.5,5.9C1.5,5.9,1.5,6,1.5,5.9C1.5,6,1.5,6,1.5,5.9C1.5,6,1.5,6,1.5,5.9C1.5,5.9,1.5,5.9,1.5,5.9z"/>
	<path d="M1.5,5.9C1.5,5.9,1.5,5.9,1.5,5.9C1.4,5.9,1.4,5.9,1.5,5.9C1.5,5.9,1.5,5.9,1.5,5.9C1.5,5.9,1.5,5.9,1.5,5.9z"/>
	<path d="M1.7,4.2C1.7,4.2,1.7,4.3,1.7,4.2C1.7,4.3,1.7,4.3,1.7,4.2C1.7,4.2,1.7,4.2,1.7,4.2C1.7,4.2,1.7,4.2,1.7,4.2z"/>
	<path d="M1.7,4.2C1.7,4.2,1.7,4.2,1.7,4.2C1.8,4.2,1.8,4.2,1.7,4.2C1.8,4.2,1.7,4.2,1.7,4.2C1.7,4.2,1.7,4.2,1.7,4.2z"/>
	<path d="M15.6,3.2C15.6,3.2,15.6,3.2,15.6,3.2C15.7,3.2,15.7,3.2,15.6,3.2C15.6,3.2,15.6,3.2,15.6,3.2C15.6,3.2,15.6,3.2,15.6,3.2z
		"/>
	<ellipse cx="3.7" cy="18" rx="0" ry="0"/>
	<ellipse cx="3.6" cy="18" rx="0" ry="0"/>
	<path class="st0" d="M9.9,13C9.9,13,9.9,13.1,9.9,13c0,0.2-0.1,0.2-0.1,0.3c0,0-0.1,0-0.1,0c0,0-0.1-0.1-0.1-0.1
		C9.6,13.1,9.7,13,9.9,13z"/>
	<path class="st0" d="M11.7,13.8c0.1,0.1,0.2,0.1,0.3,0.2c-0.1,0.1-0.2,0-0.4,0c0-0.1-0.1,0-0.1-0.1c0,0-0.1-0.1-0.2-0.1
		C11.5,13.8,11.6,13.8,11.7,13.8z"/>
	<path class="st0" d="M13.5,10c0-0.2,0-0.3,0.1-0.4c0,0,0.1-0.1,0.2-0.2c0,0.2,0,0.3-0.2,0.4C13.6,9.9,13.5,9.9,13.5,10z"/>
	<path class="st0" d="M10.4,12.9c0.1,0,0.2,0.1,0.3,0.1c0,0-0.1,0.1-0.1,0.1C10.5,13.1,10.4,13,10.4,12.9
		C10.4,12.9,10.4,12.9,10.4,12.9z"/>
	<path class="st0" d="M18,5C18.1,5,18.1,5,18,5C18.1,5,18.1,5,18,5c0.1,0.1,0.1,0.2,0.1,0.2c0,0-0.1,0-0.1,0C18,5.1,18,5.1,18,5z"/>
	<path class="st0" d="M17.3,17.2c-0.1,0.1-0.2,0.1-0.3,0c0.1,0,0.1,0,0.1,0C17.2,17.2,17.2,17.2,17.3,17.2z"/>
	<path class="st0" d="M13.9,15.4c-0.1,0-0.1,0-0.1,0c0,0,0-0.1,0-0.1C13.8,15.4,13.9,15.4,13.9,15.4z"/>
	<path class="st0" d="M15.6,7.9c0,0.1,0,0.1,0,0.1c0,0,0,0,0,0C15.6,8,15.5,8,15.6,7.9C15.5,7.9,15.6,7.9,15.6,7.9z"/>
	<path class="st0" d="M7.3,10.7C7.3,10.6,7.4,10.6,7.3,10.7C7.4,10.6,7.4,10.6,7.3,10.7C7.4,10.7,7.3,10.7,7.3,10.7
		C7.3,10.7,7.3,10.7,7.3,10.7z"/>
	<path class="st0" d="M10.4,12.9C10.4,12.9,10.4,12.9,10.4,12.9C10.4,12.9,10.4,12.9,10.4,12.9C10.4,12.9,10.4,12.9,10.4,12.9z"/>
	<path class="st0" d="M10.4,12.9C10.4,12.9,10.4,12.9,10.4,12.9C10.4,12.9,10.4,12.9,10.4,12.9C10.4,12.9,10.4,12.9,10.4,12.9z"/>
	<ellipse class="st0" cx="7.3" cy="10.8" rx="0" ry="0"/>
	<path class="st0" d="M9.8,13C9.8,13,9.7,13,9.8,13C9.7,13,9.7,13,9.8,13C9.8,13,9.8,13,9.8,13C9.8,13,9.8,13,9.8,13z"/>
	<path class="st0" d="M7.3,10.7C7.3,10.7,7.3,10.7,7.3,10.7C7.3,10.7,7.3,10.7,7.3,10.7C7.3,10.7,7.3,10.7,7.3,10.7
		C7.3,10.7,7.3,10.7,7.3,10.7z"/>
	<path class="st0" d="M7.3,10.7C7.3,10.7,7.3,10.7,7.3,10.7C7.3,10.7,7.3,10.7,7.3,10.7z"/>
	<path class="st0" d="M8.8,13.9C8.8,13.9,8.7,13.9,8.8,13.9C8.7,13.9,8.8,13.8,8.8,13.9C8.8,13.8,8.8,13.9,8.8,13.9z"/>
	<path class="st0" d="M8.7,13.9C8.7,13.9,8.7,13.9,8.7,13.9C8.7,13.9,8.7,13.9,8.7,13.9C8.7,13.9,8.7,13.9,8.7,13.9z"/>
	<path class="st0" d="M18.5,14.5C18.5,14.5,18.5,14.5,18.5,14.5C18.5,14.5,18.5,14.5,18.5,14.5C18.5,14.5,18.5,14.5,18.5,14.5z"/>
	<path class="st0" d="M6.6,10C6.6,10,6.6,10,6.6,10C6.6,10,6.6,10,6.6,10z"/>
	<path class="st0" d="M13.5,9.9C13.5,10,13.5,10,13.5,9.9C13.5,10,13.4,10,13.5,9.9C13.5,10,13.5,9.9,13.5,9.9
		C13.5,9.9,13.5,9.9,13.5,9.9z"/>
	<ellipse class="st0" cx="5.4" cy="9.1" rx="0" ry="0"/>
	<path class="st0" d="M6.9,6.2C6.9,6.2,6.9,6.2,6.9,6.2C6.9,6.2,6.9,6.2,6.9,6.2C6.9,6.2,6.9,6.2,6.9,6.2C6.9,6.2,6.9,6.2,6.9,6.2z"
		/>
	<path class="st0" d="M18.1,5.2C18.1,5.2,18.1,5.2,18.1,5.2C18,5.2,18,5.2,18.1,5.2C18,5.2,18.1,5.2,18.1,5.2
		C18.1,5.2,18.1,5.2,18.1,5.2z"/>
	<path d="M10.4,12.9C10.4,12.9,10.4,12.9,10.4,12.9C10.4,12.9,10.4,12.9,10.4,12.9C10.4,12.9,10.4,12.9,10.4,12.9z"/>
</g>
</svg>
